<?xml version="1.0" encoding="UTF-8"?>
<svg id="Camada_1" data-name="Camada 1" xmlns="http://www.w3.org/2000/svg" viewBox="0 0 600 600">
  <defs>
    <style>
      .cls-1 {
        fill: #54c0e8;
      }

      .cls-2 {
        fill: #ff4713;
      }

      .cls-3 {
        fill: #007934;
      }

      .cls-4 {
        fill: #3dae2b;
      }
    </style>
  </defs>
  <path class="cls-3" d="M139.19,296.53c-4.6,0-9.1-2.22-11.84-6.33-40.8-61.17,8.04-142.66,10.14-146.1,2.4-3.93,6.55-6.45,11.14-6.78,4.65-.3,9.06,1.6,11.98,5.16h0c.05,0,17.35,16.9,90.15,38.11,7.54,2.2,11.87,10.09,9.67,17.62-2.2,7.53-10.07,11.89-17.62,9.68-47.32-13.78-73.75-26.24-88.2-35.01-10.34,22.62-25.91,68.09-3.6,101.53,4.36,6.54,2.59,15.36-3.94,19.72-2.43,1.61-5.16,2.39-7.88,2.39"/>
  <path class="cls-4" d="M301.53,263.52c-.9,0-1.82-.09-2.74-.27-7.71-1.5-12.74-8.97-11.23-16.67,1-5.13-8.74-19.37-20.08-26.89-8.19-5.44-16.48-9.41-24.66-11.79-81.69-23.79-101.11-43.63-104.18-47.36-4.99-6.07-4.11-15.03,1.97-20.01,6.06-4.99,15.03-4.1,20.01,1.97h0c.06,0,17.36,16.9,90.16,38.11,10.94,3.19,21.86,8.36,32.44,15.39,14.78,9.81,36.62,33.7,32.26,56.03-1.32,6.79-7.28,11.5-13.94,11.5"/>
  <path class="cls-3" d="M235.31,287.13c-14.18-8.4-27.25-18.96-38.63-31.3-5.76-6.1-10.95-12.8-15.38-20-4.31-7.27-8.04-14.94-10.3-23.09-.75-2.7.84-5.5,3.54-6.24,2.05-.57,4.16.21,5.38,1.81l.06.08c4.73,6.19,9.4,12.17,14.53,17.75,5.02,5.66,10.31,11.03,15.76,16.29,11.06,10.37,23.21,19.62,35.55,28.94l.05.04c4.19,3.16,5.02,9.11,1.86,13.29-2.94,3.9-8.31,4.89-12.41,2.45"/>
  <path class="cls-2" d="M244.12,302.46c-7.22,0-13.4-5.48-14.13-12.82-.77-7.81,4.93-14.77,12.75-15.55,20.12-1.99,42.11-24.91,63.38-47.08,28.51-29.72,58.25-60.53,95.56-59.1,53.27,1.92,93.81,38.13,94.29,84.21.24,22.99-10.18,39.62-11.37,41.45-4.29,6.58-13.1,8.43-19.68,4.14-6.55-4.28-8.41-13.03-4.19-19.6.23-.36,6.95-11.37,6.8-25.69-.32-30.62-29.07-54.73-66.87-56.09-24.65-.74-49.83,25.16-74.01,50.36-24.84,25.9-50.53,52.68-81.1,55.7-.47.05-.95.07-1.42.07"/>
  <path class="cls-1" d="M426.13,358.27h-252.1c-25.9,0-50.98-10.76-68.83-29.53l-28.97-30.46c-3.92-4.12-5.01-10.18-2.76-15.41,2.24-5.22,7.38-8.61,13.07-8.61h427.1c5.68,0,10.83,3.39,13.06,8.61,2.25,5.23,1.16,11.29-2.76,15.41l-28.98,30.46c-17.84,18.77-42.93,29.53-68.83,29.53M119.67,302.69l6.13,6.45c12.51,13.15,30.08,20.69,48.22,20.69h252.1c18.14,0,35.72-7.54,48.22-20.69l6.13-6.45H119.67Z"/>
  <path class="cls-2" d="M300.26,141.03c-16.13,0-59.2-33.21-73.82-65.9-9.71-21.68-7.14-42.49,7.24-58.59,20.78-23.27,48.19-18.36,66.4-7.35,18.22-11.01,45.63-15.91,66.4,7.35,14.38,16.09,16.94,36.9,7.24,58.59-14.63,32.68-57.7,65.9-73.46,65.9M302.15,112.86h0,0ZM298.01,112.86h0,0ZM269.81,28.37c-4.97,0-10.2,1.83-14.93,7.12-5.68,6.36-7.15,13.08-4.76,21.78,6.55,23.92,39.13,49.26,49.96,54.71,10.83-5.44,43.41-30.79,49.96-54.71,2.39-8.7.92-15.42-4.76-21.78-13.88-15.53-32.12-1.24-35.63,1.8-2.58,2.22-5.94,3.5-9.34,3.5h-.43c-3.47,0-6.81-1.26-9.41-3.56-2.27-1.96-10.99-8.86-20.64-8.86M300.3,26.57h.09-.09Z"/>
  <path class="cls-2" d="M308.04,530.94c-4.07,0-8.14-.35-12.17-1.07l-91.62-14.82-14.22,5.27c-7.36,2.74-15.54-1.02-18.27-8.39-2.73-7.36,1.02-15.54,8.39-18.27l17.73-6.58c2.3-.86,4.79-1.1,7.22-.71l95.54,15.45c10.69,1.9,21.77-.38,30.56-6.24l118.65-75.95c-.38-.75-.82-1.59-1.33-2.54-.75-1.36-7.78-13.2-24.29-6.66-7.01,2.8-21.6,8.97-37.98,15.96-32.93,14.07-34.83-16.1-1.12-30.44,12.34-5.25,22.83-9.65,28.59-11.95,27.83-11.04,50.5,2.39,59.8,19.53,3.74,6.89,13.64,25.17-.12,34.78l-126.65,81.07c-11.28,7.52-24.95,11.53-38.7,11.53"/>
  <path class="cls-1" d="M432.19,391.96c-2.92-7.3-11.19-10.85-18.48-7.93-11.33,4.52-40.85,17.14-66.85,28.33,1.76,5.71,2.06,11.95.4,18.16-.69,2.57-2.39,8.2-5.41,14.96,28.41-12.26,69.06-29.72,82.4-35.05,7.3-2.91,10.85-11.18,7.93-18.48"/>
  <path class="cls-4" d="M273.93,470.45c-16.06,0-29.31-2.81-30.03-2.97-7.67-1.66-12.55-9.23-10.88-16.9,1.66-7.67,9.21-12.55,16.89-10.89.49.1,18.59,3.86,35.5,1.63,6.61-.85,13.58-13.96,16.09-23.09,2.07-7.57,9.89-12.06,17.44-9.98,7.56,2.05,12.05,9.8,10.02,17.37-1.1,4.11-11.55,40.24-39.88,43.9-5.12.67-10.26.93-15.14.93"/>
  <path class="cls-3" d="M131.42,458.53c-5.03,0-9.89-2.67-12.48-7.38-3.77-6.89-1.26-15.53,5.62-19.31,46.78-25.67,58.5-32.1,61.75-33.84h0c21.09-13.16,44.44-16.54,66.09-9.75l66.9,20.09c7.52,2.26,11.79,10.18,9.53,17.7-2.26,7.52-10.2,11.81-17.7,9.53l-67.07-20.14c-17.64-5.52-32.73.47-42.32,6.46-.66.41-1.21.73-1.64.96h0c-1.81.98-61.84,33.92-61.84,33.92-2.17,1.19-4.52,1.76-6.83,1.76"/>
  <path class="cls-4" d="M300.4,600c-86.9.01-172.9-38.67-230.14-112.51C22.67,426.11,1.83,349.86,11.58,272.8c9.76-77.06,48.93-145.71,110.33-193.3,10.62-8.23,22.04-15.74,34.91-22.96,6.83-3.85,15.51-1.4,19.36,5.44,3.84,6.85,1.4,15.51-5.44,19.36-11.63,6.53-21.9,13.27-31.4,20.64-55.38,42.94-90.74,104.87-99.54,174.4-8.8,69.52,10,138.31,52.94,193.7,88.64,114.33,253.77,135.22,368.1,46.59,114.33-88.64,135.23-253.77,46.59-368.1-21.37-27.57-47.63-50.26-78.03-67.45-6.84-3.86-9.24-12.54-5.38-19.37,3.87-6.83,12.54-9.23,19.37-5.38,33.7,19.06,62.81,44.22,86.51,74.78,98.24,126.72,75.07,309.75-51.65,408-52.89,41-115.61,60.86-177.85,60.86"/>
</svg>