<?xml version="1.0" encoding="UTF-8"?>
<svg id="Camada_1" data-name="Camada 1" xmlns="http://www.w3.org/2000/svg" viewBox="0 0 600 600">
  <defs>
    <style>
      .cls-1 {
        fill: #2d2a26;
      }
    </style>
  </defs>
  <path class="cls-1" d="M520.28,154c-6.47,4.22-8.29,12.88-4.07,19.34,27.31,41.87,41.74,90.53,41.74,140.75,0,142.24-115.71,257.95-257.95,257.95S42.05,456.33,42.05,314.09c0-50.34,14.5-99.12,41.94-141.05,4.23-6.46,2.42-15.12-4.04-19.35-6.46-4.21-15.12-2.42-19.35,4.05-30.42,46.49-46.51,100.56-46.51,156.36,0,157.65,128.26,285.91,285.91,285.91s285.91-128.26,285.91-285.91c0-55.65-16-109.6-46.28-156.02-4.21-6.47-12.87-8.29-19.34-4.07"/>
  <path class="cls-1" d="M131.79,314.14c7.72,0,13.98-6.26,13.98-13.98,0-74.39,69.18-134.91,154.23-134.91s154.23,60.52,154.23,134.91c0,7.72,6.26,13.98,13.98,13.98s13.98-6.26,13.98-13.98c0-85.6-74.26-155.99-168.21-162.39v-21.62h5.78c7.72,0,13.98-6.26,13.98-13.98s-6.26-13.98-13.98-13.98h-39.52c-7.72,0-13.98,6.26-13.98,13.98s6.26,13.98,13.98,13.98h5.78v21.62c-93.95,6.4-168.21,76.79-168.21,162.39,0,7.72,6.26,13.98,13.98,13.98"/>
  <path class="cls-1" d="M183.85,513.38l13.98-5.18,90.07,14.57c3.96.7,7.97,1.05,11.97,1.05,13.52,0,26.96-3.95,38.05-11.34l124.51-79.71c13.54-9.46,3.8-27.43.13-34.2-9.14-16.85-31.43-30.04-58.79-19.2-.36.15-.75.3-1.15.46-.13.05-.27.11-.41.17-.28.12-.57.23-.86.35-.15.06-.31.13-.46.19-.3.12-.61.25-.92.38-.17.07-.34.14-.51.21-.32.13-.65.26-.98.4-.18.07-.37.15-.55.23-.33.14-.66.27-1,.41-.21.09-.43.18-.64.26-.34.14-.69.29-1.05.44-.21.09-.43.18-.64.27-.37.16-.74.31-1.12.47-.22.1-.45.19-.68.28-.37.16-.75.32-1.14.48-.25.1-.5.21-.75.31-.35.15-.7.29-1.05.44-.32.14-.64.27-.97.41-.27.11-.55.23-.83.35-.39.17-.78.33-1.18.5-.16.07-.32.13-.48.2-4.07,1.71-8.52,3.6-13.22,5.6,0,0-.02,0-.03.02-11.07,4.71-23.44,10.02-35.09,15.03,1.73,5.61,2.03,11.74.4,17.86-.68,2.53-2.35,8.06-5.32,14.71,14.74-6.36,32.82-14.14,48.54-20.84.25-.11.5-.21.75-.32.61-.26,1.22-.52,1.83-.78.37-.16.74-.31,1.11-.47.49-.21.98-.42,1.47-.63.39-.17.78-.33,1.17-.5.51-.21,1.01-.43,1.51-.64.36-.16.73-.31,1.09-.46.45-.19.9-.38,1.34-.57.42-.18.84-.36,1.26-.54.37-.16.74-.31,1.11-.47.47-.2.93-.4,1.39-.59.29-.13.59-.25.88-.37.5-.21,1-.42,1.48-.62.24-.1.47-.2.71-.3.54-.23,1.08-.46,1.6-.67.16-.07.31-.13.47-.2.56-.23,1.12-.47,1.66-.69.13-.06.26-.11.39-.17.57-.24,1.14-.48,1.69-.7.04-.02.08-.03.12-.05,3.86-1.61,7.07-2.93,9.42-3.87,16.28-6.44,23.15,5.2,23.88,6.55.51.93.94,1.76,1.31,2.5l-116.66,74.67c-8.65,5.76-19.53,8-30.05,6.13l-93.93-15.2c-2.39-.38-4.83-.15-7.1.7l-17.43,6.46c-7.24,2.68-10.93,10.73-8.25,17.97,2.68,7.24,10.73,10.93,17.96,8.24"/>
  <path class="cls-1" d="M113.96,445.37c2.54,4.63,7.33,7.26,12.27,7.26,2.27,0,4.58-.56,6.71-1.73,0,0,59.02-32.39,60.8-33.35h0c.42-.23.96-.55,1.61-.95,9.43-5.89,24.28-11.75,41.62-6.35l51.16,15.36c-3.05,5.29-6.84,9.62-10.51,10.09-16.64,2.19-34.51-1.53-34.9-1.61-7.53-1.61-14.97,3.17-16.6,10.71-1.63,7.54,3.16,14.99,10.7,16.62.7.16,13.73,2.92,29.52,2.92,4.8,0,9.85-.25,14.89-.92,27.86-3.59,38.13-39.12,39.22-43.16.05-.19.08-.38.13-.58.04-.2.09-.39.13-.59.05-.26.08-.52.11-.78.03-.21.05-.41.07-.62.02-.25.03-.5.03-.75,0-.21.01-.43.01-.64,0-.24-.03-.48-.04-.72-.02-.22-.03-.44-.06-.65-.03-.22-.07-.45-.11-.67-.04-.23-.08-.46-.13-.68-.05-.2-.1-.39-.16-.59-.07-.24-.13-.49-.21-.73-.06-.17-.12-.33-.18-.5-.1-.26-.2-.53-.31-.78-.06-.13-.12-.25-.18-.38-.14-.29-.28-.57-.44-.85-.05-.09-.1-.17-.15-.26-.19-.31-.38-.61-.58-.91-.03-.05-.07-.09-.1-.14-.23-.33-.48-.64-.75-.95,0,0-.02-.02-.03-.03-1.68-1.93-3.89-3.44-6.52-4.23l-65.78-19.75c-21.31-6.68-44.25-3.36-64.98,9.58h0c-3.19,1.73-14.71,8.04-60.71,33.28-6.77,3.71-9.24,12.21-5.53,18.98"/>
  <path class="cls-1" d="M280.39,32.13c2.06,2,3.34,5.96,2.86,8.79l-1.98,11.55c-.49,2.83,1.2,4.05,3.74,2.71l10.37-5.45c2.54-1.34,6.7-1.34,9.25,0l10.37,5.45c2.54,1.34,4.23.12,3.74-2.71l-1.98-11.55c-.48-2.83.8-6.79,2.86-8.79l8.39-8.18c2.06-2.01,1.42-3.98-1.43-4.4l-11.6-1.69c-2.84-.41-6.21-2.86-7.48-5.43l-5.19-10.51c-1.27-2.58-3.35-2.58-4.62,0l-5.19,10.51c-1.27,2.58-4.64,5.02-7.48,5.43l-11.59,1.69c-2.84.41-3.49,2.39-1.43,4.4l8.39,8.18Z"/>
  <path class="cls-1" d="M389.3,53c2.06,2.01,3.34,5.96,2.86,8.8l-1.98,11.55c-.49,2.83,1.2,4.05,3.74,2.72l10.37-5.45c2.54-1.34,6.7-1.34,9.25,0l10.37,5.45c2.54,1.34,4.23.11,3.74-2.72l-1.98-11.55c-.49-2.83.8-6.79,2.86-8.8l8.39-8.18c2.06-2.01,1.42-3.98-1.43-4.4l-11.6-1.69c-2.84-.41-6.21-2.86-7.48-5.43l-5.19-10.51c-1.27-2.58-3.35-2.58-4.62,0l-5.19,10.51c-1.27,2.58-4.64,5.02-7.48,5.43l-11.59,1.69c-2.84.41-3.49,2.39-1.43,4.4l8.39,8.18Z"/>
  <path class="cls-1" d="M468.12,106.41c2.06,2,3.34,5.96,2.86,8.8l-1.98,11.55c-.49,2.83,1.2,4.05,3.74,2.72l10.37-5.45c2.54-1.34,6.7-1.34,9.25,0l10.37,5.45c2.54,1.34,4.23.11,3.74-2.72l-1.98-11.55c-.49-2.83.8-6.79,2.86-8.8l8.39-8.18c2.06-2.01,1.42-3.98-1.43-4.4l-11.6-1.69c-2.84-.41-6.21-2.86-7.48-5.43l-5.19-10.51c-1.27-2.58-3.35-2.58-4.62,0l-5.19,10.51c-1.27,2.58-4.64,5.02-7.48,5.43l-11.6,1.69c-2.84.41-3.48,2.39-1.43,4.4l8.39,8.18Z"/>
  <path class="cls-1" d="M179.23,53c2.06,2.01,3.34,5.96,2.86,8.8l-1.98,11.55c-.49,2.83,1.2,4.05,3.74,2.72l10.37-5.45c2.54-1.34,6.7-1.34,9.25,0l10.37,5.45c2.54,1.34,4.23.11,3.74-2.72l-1.98-11.55c-.49-2.83.8-6.79,2.86-8.8l8.39-8.18c2.06-2.01,1.42-3.98-1.43-4.4l-11.6-1.69c-2.84-.41-6.21-2.86-7.48-5.43l-5.19-10.51c-1.27-2.58-3.35-2.58-4.62,0l-5.19,10.51c-1.27,2.58-4.64,5.02-7.48,5.43l-11.6,1.69c-2.84.41-3.48,2.39-1.43,4.4l8.39,8.18Z"/>
  <path class="cls-1" d="M101.98,106.41c2.06,2,3.34,5.96,2.86,8.8l-1.98,11.55c-.49,2.83,1.2,4.05,3.74,2.72l10.37-5.45c2.54-1.34,6.7-1.34,9.25,0l10.37,5.45c2.54,1.34,4.23.11,3.74-2.72l-1.98-11.55c-.49-2.83.8-6.79,2.86-8.8l8.39-8.18c2.06-2.01,1.42-3.98-1.43-4.4l-11.6-1.69c-2.84-.41-6.21-2.86-7.48-5.43l-5.19-10.51c-1.27-2.58-3.35-2.58-4.62,0l-5.19,10.51c-1.27,2.58-4.64,5.02-7.48,5.43l-11.6,1.69c-2.84.41-3.48,2.39-1.43,4.4l8.39,8.18Z"/>
  <path class="cls-1" d="M74.22,301.76c-6.42,4.28-8.16,12.96-3.88,19.39l24,36c2.59,3.89,6.96,6.23,11.63,6.23h388.06c4.68,0,9.04-2.33,11.63-6.23l24-36c4.28-6.43,2.55-15.1-3.88-19.39-6.43-4.29-15.1-2.54-19.39,3.88l-19.85,29.78H113.45l-19.85-29.78c-4.28-6.42-12.96-8.17-19.39-3.88"/>
</svg>