<?xml version="1.0" encoding="UTF-8"?>
<svg id="Camada_1" data-name="Camada 1" xmlns="http://www.w3.org/2000/svg" viewBox="0 0 600 600">
  <defs>
    <style>
      .cls-1 {
        fill: #ff4713;
      }

      .cls-2 {
        fill: #5ec3e9;
      }

      .cls-3 {
        fill: #007934;
      }

      .cls-4 {
        fill: #3dae2b;
      }
    </style>
  </defs>
  <path class="cls-3" d="M218.27,321.33v6.78-6.42c-.01-.11-.01-.24,0-.36"/>
  <path class="cls-2" d="M449.34,361.65c-15.87-12.29-20.85-27.83-19.68-47.65,1.52-25.71-.12-51.59.53-77.37.81-32.06,13.45-59.07,38.51-82.5v200.53c4.96-4.67,9.72,3.26,14.36-1.67,0-10.25,0-33.35,0-43.6,0-55.65.06-111.3-.17-166.95-.01-3.08-1.72-7.62-4.02-8.82-2.28-1.18-7.02.06-9.48,1.86-34.38,25.15-52.64,59.16-53.59,101.76-.7,31.51-.1,63.05-.16,94.58-.02,10.31,3.6,19.1,10.53,26.59,2.75,2.98,5.47,6.07,8.63,8.58,3.18,2.52,4.57,5.45,5.08,8.92,4.62-2.39,9.02-5.17,13.25-8.23-.84-2.47-2.13-4.75-3.79-6.04"/>
  <path class="cls-4" d="M483.08,353.41v.89c0-.29-.01-.56-.06-.83l.06-.06Z"/>
  <path class="cls-4" d="M439.31,373.49c-.01-.09-.04-.16-.07-.24h.02c.01.09.03.16.06.24"/>
  <path class="cls-4" d="M453.32,368.27c-.07-.19-.17-.36-.27-.53.03-.02.06-.04.09-.06.07.2.13.39.19.59"/>
  <path class="cls-4" d="M299.21,417.64c-56.21-.06-101.53-45.87-101.41-102.51.11-55.76,45.95-101.11,102.14-101.06,56.23.06,101.55,45.86,101.42,102.5-.12,55.78-45.95,101.13-102.15,101.07M299.35,403.28c48.09.08,87.56-39.19,87.64-87.19.08-48.11-39.17-87.57-87.18-87.65-48.11-.08-87.57,39.17-87.65,87.19-.08,48.09,39.19,87.57,87.19,87.65"/>
  <path class="cls-3" d="M299.87,452.89c-26.09-.24-50.13-6.82-72.19-20.41-3.97-2.45-7.24-5.46-4.63-10.39,2.9-5.5,7.28-5,12.08-2.02,13.5,8.37,28.04,14.11,43.81,16.46,43.16,6.43,80.03-5.8,110.36-37.33,2.15-2.24,4.12-4.64,6.2-6.94,3.17-3.51,6.82-4.62,10.6-1.2,3.72,3.37,3.28,7.43.1,10.76-6.9,7.24-13.55,14.87-21.29,21.11-24.79,20.02-53.47,29.66-85.03,29.96"/>
  <path class="cls-3" d="M295.55,178.77c40.04.53,71.24,12.81,97.68,37.09,1.58,1.45,3.1,2.98,4.6,4.52,3.44,3.54,4.64,7.51.75,11.28-3.59,3.47-7.39,2.38-10.75-.83-1.04-.99-2.03-2.02-3.06-3.01-36.88-35.38-90.02-44.43-136.6-23.26-.87.39-1.73.79-2.59,1.21-4.36,2.12-8.6,2.42-11.06-2.47-2.69-5.35.44-8.88,5.17-10.57,11.39-4.08,22.78-8.38,34.48-11.34,8.24-2.09,16.99-2.12,21.39-2.6"/>
  <path class="cls-2" d="M233.73,310.39c2.36-23.72,14.81-42.9,38.42-54.5,4.52-2.22,8.56-1.68,10.83,3.12,2.17,4.57-.18,7.71-4.34,9.76-19.19,9.48-29.45,24.89-30.6,46.27-.26,4.75-2.41,7.74-7.31,7.89-4.7.15-7.19-3.69-7.01-12.55"/>
  <path class="cls-1" d="M304.89,254.63c0,3.79-3.07,6.86-6.86,6.86s-6.86-3.07-6.86-6.86,3.07-6.86,6.86-6.86,6.86,3.07,6.86,6.86"/>
  <path class="cls-1" d="M222.12,412.43c0,3.79-3.07,6.86-6.86,6.86s-6.86-3.07-6.86-6.86,3.07-6.86,6.86-6.86,6.86,3.07,6.86,6.86"/>
  <path class="cls-3" d="M189.34,259.74v76.04l-.04,140.12c0,12.37-10.79,23.16-23.16,23.16s-23.39-10.49-23.39-23.39l-.32-141.48v-76.04h18v76.04h-.04l.32,141.47c.01,3.01,2.44,5.43,5.43,5.44,2.78,0,5.19-2.42,5.19-5.2l.04-140.12h-.04v-76.04h18.02Z"/>
  <path class="cls-2" d="M186.81,142.56c1.41-1.41,3.29-2.36,5.43-2.58,4.94-.51,9.35,3.08,9.86,8.02l8.5,83.36c0,8.89-2.86,16.23-8.41,21.55-10.78,10.44-27.99,9.9-36.26,9.64-.87-.03-1.61-.05-2.2-.05-4.96,0-8.98-4.02-8.98-8.99,0-4.96,4.02-8.98,8.98-8.98.74,0,1.67.03,2.76.07,5.35.17,17.87.56,23.19-4.59.74-.66,2.83-2.75,2.94-8.22l-8.41-81.94c-.29-2.8.74-5.43,2.59-7.27"/>
  <path class="cls-1" d="M129.11,142.57c1.85-1.85,4.47-2.87,7.27-2.59,4.94.51,8.52,4.91,8.02,9.85l-8.4,81.95c.11,5.48,2.23,7.53,2.94,8.22,5.31,5.14,17.83,4.75,23.19,4.58,1.09-.03,2.03-.06,2.77-.06,4.96,0,8.98,4.02,8.98,8.98,0,4.96-4.02,8.98-8.98,8.98-.59,0-1.34.03-2.21.06-8.27.26-25.48.8-36.25-9.64-5.58-5.4-8.41-12.65-8.4-21.54l.05-.92,8.46-82.44c.22-2.13,1.17-4.02,2.58-5.43"/>
  <path class="cls-1" d="M157.96,143.76c1.62-1.62,3.87-2.63,6.35-2.63,4.96,0,8.98,4.02,8.98,8.98v102.69c0,4.96-4.02,8.98-8.98,8.98s-8.98-4.02-8.98-8.98v-102.69c0-2.48,1.01-4.73,2.63-6.35"/>
  <path class="cls-4" d="M483.05,476.34c-.03,17-15.68,27.92-30.27,21.1-8.59-4.01-12.77-11.08-12.76-20.64.03-30-.07-60.01.09-90,.01-2.25.01-4.49.04-6.72,0-1.36-.11-4.17-.75-6.29-.03-.1-.06-.2-.1-.3-.03-.09-.04-.16-.06-.24-.16-.59-.23-1.19-.23-1.82,0-4.14,3.35-7.51,7.51-7.51,2.79,0,5.24,1.53,6.52,3.83.1.17.2.34.27.53.32,1,.55,2.03.69,3.01.01.04.01.1.01.14.1.66.16,1.31.16,1.92.04,3.44.06,6.86.09,10.31.24,29.28.11,58.57.14,87.87,0,5.63-1.25,12.25,6.99,13.3,5.09.65,7.29-3.62,7.29-13v-117.16l.03-.03c-.01-.1-.01-.22-.01-.33,0-3.97,3.21-7.18,7.18-7.18,3.68,0,6.72,2.77,7.12,6.35.04.27.06.55.06.83,0,44.92.01,76.95-.03,122.05"/>
  <path class="cls-4" d="M454.01,371.28c-.14-.97-.37-2.01-.69-3.01.43.92.67,1.93.69,3.01"/>
  <path class="cls-1" d="M300.3,26.57h.09-.09ZM269.81,28.37c-4.98,0-10.22,1.84-14.94,7.12-5.67,6.36-7.15,13.07-4.76,21.78,6.55,23.92,39.15,49.26,49.98,54.71,10.84-5.44,43.43-30.79,49.98-54.71,2.38-8.71.91-15.42-4.77-21.78-13.88-15.54-32.12-1.24-35.64,1.79-2.58,2.21-5.93,3.5-9.35,3.5h-.43c-3.47,0-6.81-1.27-9.42-3.56-2.27-1.96-10.98-8.86-20.64-8.86M298.02,112.87h-.01.01ZM302.16,112.87h0,0ZM300.27,141.03c-16.13,0-59.22-33.21-73.85-65.89-9.71-21.69-7.14-42.5,7.24-58.59,20.79-23.27,48.21-18.37,66.43-7.35,18.23-11.02,45.64-15.91,66.43,7.35,14.37,16.09,16.95,36.9,7.24,58.59-14.64,32.68-57.72,65.89-73.48,65.89"/>
  <path class="cls-4" d="M300.41,600c-86.93.01-172.96-38.67-230.23-112.51C22.56,426.11,1.72,349.86,11.47,272.79c9.76-77.06,48.97-145.7,110.37-193.3,10.63-8.23,22.06-15.75,34.92-22.97,6.84-3.85,15.53-1.4,19.36,5.45,3.85,6.85,1.42,15.51-5.43,19.35-11.64,6.53-21.92,13.28-31.41,20.65-55.4,42.94-90.77,104.87-99.57,174.39-8.8,69.53,10,138.32,52.96,193.71,88.67,114.33,253.87,135.22,368.25,46.59,114.38-88.64,135.28-253.77,46.61-368.1-21.38-27.57-47.65-50.26-78.06-67.46-6.84-3.87-9.25-12.53-5.38-19.37,3.86-6.84,12.55-9.23,19.37-5.38,33.72,19.05,62.84,44.22,86.54,74.79,98.28,126.72,75.11,309.74-51.67,407.99-52.9,41.01-115.64,60.87-177.92,60.87"/>
</svg>