<?xml version="1.0" encoding="UTF-8"?>
<svg id="Camada_1" data-name="Camada 1" xmlns="http://www.w3.org/2000/svg" viewBox="0 0 600 600">
  <defs>
    <style>
      .cls-1 {
        fill: #54c0e8;
      }

      .cls-2 {
        fill: #ff4713;
      }

      .cls-3 {
        fill: #007934;
      }

      .cls-4 {
        fill: #3dae2b;
      }
    </style>
  </defs>
  <path class="cls-3" d="M529.7,338.38c13.24-.11,20.32-7.07,20.44-20.23.15-16.12.14-32.24,0-48.36-.11-13.21-7.14-20.32-20.27-20.44-15.05-.15-30.11-.04-45.85-.04-.08,4.56-.19,9.11-.27,13.66,15.34,0,30.95-.26,46.53.3,2.17.08,5.91,4.19,5.99,6.53.53,16.1.53,32.23,0,48.32-.08,2.29-3.92,6.31-6.12,6.37-16.06.48-32.1.34-47.48.3-1.99,5.11-4.36,9.86-6.95,14.41,2.72-.78,6.49-.8,12.38-.8,13.86,0,27.73.09,41.59-.03"/>
  <path class="cls-3" d="M581.16,274.03c0-36.01-19.58-55.68-55.41-55.69-14.06,0-28.13,0-42.64,0,.49,4.59.76,9.24.89,13.91,17.61-.05,35.26-1.07,52.71.32,17.51,1.39,30.32,16.63,30.72,34.32.42,18.04.45,36.12,0,54.16-.48,18.79-15.17,34.05-33.76,34.54-22.54.6-45.11.14-68.41.14.03-.08.05-.14.08-.21-4.72,6.93-9.49,15.37-8.58,14.11,0,0,3.75-.03,7.08-.08,22.25-.32,44.51-.1,66.77-.19,29.27-.12,50.38-21.38,50.53-50.82.07-14.84.02-29.68.01-44.52"/>
  <path class="cls-3" d="M305.73,298.67c-3.39,2.94-7.04,5.78-10.92,8.48,3.4,3.08,7.05,6.07,10.92,8.93,3.87-2.86,7.53-5.84,10.92-8.93-3.88-2.7-7.54-5.54-10.92-8.47"/>
  <path class="cls-1" d="M351.63,323.95v67.54h-91.8v-67.54c-4.84-3.29-9.4-6.8-13.64-10.46v84.81c0,3.76,3.05,6.81,6.82,6.81h105.44c3.76,0,6.82-3.05,6.82-6.81v-84.81c-4.23,3.66-8.79,7.17-13.64,10.46"/>
  <path class="cls-4" d="M280.26,257.7c-.19-6.53,2.28-12.77,6.96-17.57.86-.88,1.77-1.69,2.74-2.43-1.56,1.14-2.68,2.18-3.3,2.79-2.66,2.63-6.95,2.63-9.6,0-.76-.76-2.34-2.19-4.54-3.65-4.04,6.33-6.11,13.65-5.89,21.25.45,15.69,11.15,33.59,28.18,49.05,3.88-2.7,7.54-5.54,10.92-8.48-15.29-13.25-25.11-28.41-25.47-40.96"/>
  <path class="cls-1" d="M324.8,240.49c-.61-.61-1.74-1.65-3.3-2.8.97.75,1.89,1.56,2.74,2.44,4.67,4.81,7.14,11.05,6.96,17.57-.36,12.56-10.19,27.71-25.47,40.96,3.39,2.93,7.04,5.77,10.92,8.47,17.03-15.46,27.73-33.35,28.18-49.04.22-7.6-1.85-14.93-5.89-21.26-2.2,1.46-3.77,2.89-4.54,3.65-2.66,2.63-6.95,2.63-9.6,0"/>
  <path class="cls-3" d="M272.51,236.84c2.2,1.46,3.77,2.89,4.54,3.65,2.66,2.63,6.95,2.63,9.6,0,.61-.61,1.74-1.65,3.3-2.79,2.51-1.93,5.36-3.4,8.38-4.33,1.93-.61,4.05-1.03,6.31-1.11h.01c.28-.01.56-.03.84-.03.08,0,.15,0,.23,0s.15,0,.23,0c.28,0,.56.02.83.03h.01c2.27.09,4.38.5,6.31,1.11,3.02.93,5.86,2.39,8.37,4.32,1.56,1.15,2.69,2.19,3.3,2.8,2.66,2.63,6.95,2.63,9.6,0,.77-.76,2.34-2.19,4.54-3.65-1.4-2.2-3.05-4.28-4.92-6.2-1.68-1.73-3.52-3.28-5.48-4.67-2-1.39-4.39-2.8-7.11-4.01-.11-.05-.21-.1-.32-.15-.13-.06-.26-.11-.39-.16-4.73-1.96-9.82-3.01-15-3.05-5.18.03-10.27,1.09-15,3.05-.13.05-.27.1-.39.16-.11.05-.21.1-.32.15-2.72,1.21-5.1,2.62-7.1,4.01-1.96,1.38-3.8,2.94-5.48,4.67-1.88,1.92-3.52,4-4.92,6.2"/>
  <path class="cls-1" d="M281.85,315.14c-28.26-15.39-48.82-39.17-49.35-57.43-.19-6.53,2.28-12.77,6.96-17.57,4.89-5.03,11.72-7.91,18.75-7.91,5.93,0,10.88,2.34,14.3,4.61,1.4-2.2,3.05-4.28,4.92-6.2,1.38-1.42,2.87-2.72,4.44-3.9-.01,0-.02-.01-.02-.01-5.18-3.81-13.31-8.13-23.64-8.13s-21.09,4.39-28.53,12.04c-7.26,7.47-11.1,17.22-10.81,27.46.68,23.98,25.3,53.1,59.87,70.81.97.5,2.04.75,3.11.75s2.13-.25,3.11-.75c7.43-3.81,14.39-8.14,20.76-12.84-3.87-2.85-7.53-5.84-10.93-8.93-4.09,2.84-8.42,5.53-12.95,8"/>
  <path class="cls-4" d="M381.77,230.64c-7.44-7.65-17.84-12.04-28.53-12.04s-18.47,4.31-23.64,8.13c0,0-.02.01-.02.01,1.57,1.19,3.06,2.48,4.44,3.9,1.88,1.92,3.52,4.01,4.92,6.2,3.42-2.27,8.38-4.61,14.3-4.61,7.03,0,13.86,2.88,18.75,7.91,4.67,4.8,7.15,11.05,6.96,17.57-.52,18.27-21.08,42.04-49.35,57.43-4.53-2.47-8.86-5.15-12.95-8-3.4,3.08-7.05,6.07-10.92,8.93,6.37,4.7,13.34,9.03,20.76,12.84.98.5,2.04.75,3.11.75s2.13-.25,3.11-.75c34.56-17.71,59.18-46.83,59.87-70.81.29-10.24-3.54-19.99-10.81-27.46"/>
  <path class="cls-4" d="M475.92,249.31v-17.06c.39,0-.41-13.92-.75-13.92,0-6.51-.07-11.65.02-16.79.13-7.2-2.98-10.41-10.5-10.4-106.13.12-212.25.13-318.38-.01-7.52,0-10.44,2.94-10.38,10.3.24,30-.67,60.03.55,89.98,2,48.99,23.84,88.21,62.39,118.13,7.95,6.17,16.84,11.12,27.38,17.98q-.03-.38,0,0s.49.38.54.42c-.05,0,138.64.04,158.63.04.38,0,1.15-.36,1.13-.36,22.87-13.62,42.21-29.94,57.88-50.57,4.43-7.63,9.29-14.58,14.01-21.52,4.21-6.78,9.68-16.97,12.77-30.74,1.79-20.81,3.51-40.86,5.32-61.82.11,0-.6-13.65-.6-13.65M456.05,321.38c-16.1,61.52-72.59,105.3-136.28,106.18-26.11.36-52.05.59-77.13-9.11-54.31-21.01-91.13-71.61-92.63-129.67-.71-27.62-.12-55.28-.12-83.44h311.83c-2.21,39.17,4.29,77.98-5.66,116.03"/>
  <path class="cls-2" d="M472.75,441.15c1.14-9.96-.61-12.83-9.56-13.21H153.03c-2.93.15-5.18.6-6.83,1.45-3.4,2.05-3.93,6.09-2.43,13.09,4.37,20.41,20.8,33.37,42.63,33.38,106.13.03,120,.01,226.12.01,17.42,0,4.09.25,21.5-.08,6.03-.12,11.86-1.71,17.12-4.4,11.53-6.09,20.15-17.5,21.61-30.23M444.09,459.73c-2.51,1.24-5.28,2.14-8.28,2.58-1.59.24-3.22.22-4.83.22q-122.9,0-245.69-.03c-14.4-.01-24.02-7.45-26.63-20.38h.54c-.02-.09-.04-.17-.06-.25h298.47c-1.21,8.03-6.23,14.46-13.51,17.87"/>
  <path class="cls-1" d="M246.57,174.63c.37-7.45,2.59-15.22,6.13-22.03,4.33-8.35,10.83-15.9,16.48-23.72,9.4-13,15.01-26.84,13.16-42.53-2.2-18.73-23.23-34.95-43.09-33.5-1.37.1-2.68.64-3.8,1.43l-.05.03c-4.23,2.99-4.35,9.22-.24,12.38l.57.44c.94.72,2.05,1.22,3.21,1.45,1.41.28,2.7.55,3.98.81,14.9,2.96,21.66,10.78,21.29,24.15-.26,10.25-5.12,18.97-11.15,27.37-5.13,7.08-10.52,14.05-15.32,21.29-7.35,10.95-10.82,22.68-9.78,35.33h18.66c-.07-.94-.12-1.88-.06-2.89"/>
  <path class="cls-1" d="M387.04,174.63c-.48-9.25,2.85-17.65,8.35-25.41,4.91-7.03,10.31-13.84,15.43-20.82,9.51-12.84,15.06-26.52,13.16-42.06-2.25-18.74-23.68-34.91-44.24-33.5-1.41.09-2.76.65-3.9,1.48-4.16,3-4.27,9.15-.22,12.31l.53.42c.95.74,2.07,1.25,3.25,1.48,1.56.31,2.9.58,4.21.85,14.85,2.85,21.82,10.25,21.87,23.04.05,10.62-5.02,19.76-11.46,28.48-5.23,7.08-10.72,14.05-15.69,21.29-7.5,10.9-11.06,22.67-9.99,35.33h19.01c-.14-.93-.24-1.89-.3-2.89"/>
  <path class="cls-1" d="M320.58,144.72c6.56-9.38,13.75-18.47,20.59-27.78,12.69-17.13,20.09-35.39,17.56-56.12-3-25-31.6-46.58-59.03-44.7-1.88.13-3.68.87-5.2,1.97-5.54,4.01-5.69,12.21-.3,16.42l.72.56c1.26.98,2.77,1.66,4.33,1.98,2.08.42,3.87.78,5.62,1.14,19.81,3.81,29.12,13.68,29.19,30.74.07,14.17-6.7,26.37-15.3,38-6.98,9.45-14.31,18.75-20.94,28.41-9.03,13.12-13.8,27.17-13.61,42.18h25.24c-.32-11.9,4.03-22.75,11.14-32.8"/>
  <path class="cls-4" d="M580.3,209.58c-7.48,0-14.51-4.59-17.28-12.01-16.25-43.6-43.75-82.57-79.53-112.7-7.79-6.56-8.78-18.19-2.22-25.98,6.56-7.79,18.19-8.79,25.98-2.22,40.63,34.21,71.86,78.49,90.33,128.03,3.56,9.54-1.3,20.16-10.84,23.72-2.12.79-4.3,1.17-6.44,1.17"/>
  <path class="cls-4" d="M575.89,405.88c-9.09-4.58-20.18-.93-24.77,8.16-46.38,91.96-139.13,149.08-242.05,149.08-149.39,0-270.93-121.54-270.93-270.93,0-115.74,73.49-218.74,182.88-256.3,9.63-3.31,14.76-13.8,11.45-23.43-3.31-9.63-13.8-14.76-23.43-11.45C84.76,43.69,1.26,160.71,1.26,292.19c0,169.73,138.08,307.81,307.81,307.81,116.92,0,222.29-64.89,274.98-169.35,4.59-9.09.93-20.18-8.16-24.77"/>
</svg>