<?xml version="1.0" encoding="UTF-8"?>
<svg id="Camada_1" data-name="Camada 1" xmlns="http://www.w3.org/2000/svg" xmlns:xlink="http://www.w3.org/1999/xlink" viewBox="0 0 600 600">
  <defs>
    <style>
      .cls-1 {
        fill: #54c0e8;
      }

      .cls-2 {
        fill: #e64f27;
      }

      .cls-3 {
        fill: #006f33;
      }

      .cls-4 {
        fill: none;
      }

      .cls-5 {
        clip-path: url(#clippath-1);
      }

      .cls-6 {
        fill: #3dae2b;
      }

      .cls-7 {
        clip-path: url(#clippath);
      }

      .cls-8 {
        opacity: .99;
      }
    </style>
    <clipPath id="clippath">
      <rect class="cls-4" x=".43" width="599.14" height="600"/>
    </clipPath>
    <clipPath id="clippath-1">
      <rect class="cls-4" x=".43" width="599.14" height="600"/>
    </clipPath>
  </defs>
  <g class="cls-8">
    <g class="cls-7">
      <g class="cls-5">
        <path class="cls-6" d="M300.42,600c-80.13,0-155.47-31.2-212.13-87.87C31.62,455.47.42,380.13.42,300S31.62,144.53,88.28,87.87C144.95,31.21,220.28,0,300.42,0c2.79,0,5.62.04,8.4.12,10.27.28,18.36,8.84,18.08,19.1-.28,10.27-8.87,18.34-19.1,18.08-2.45-.07-4.93-.1-7.38-.1-144.91,0-262.81,117.89-262.81,262.81s117.9,262.81,262.81,262.81c136.35,0,251.43-106.34,262-242.1.8-10.24,9.73-17.89,19.98-17.1,10.24.8,17.89,9.75,17.1,19.98-5.85,75.08-39.55,144.76-94.91,196.2-55.65,51.72-128.16,80.2-204.18,80.2"/>
      </g>
    </g>
  </g>
  <path class="cls-3" d="M377.97,78.41c-1.52-2.38-3.31-4.64-5.34-6.73-1.83-1.88-3.82-3.56-5.94-5.06-2.17-1.51-4.76-3.04-7.71-4.36-.12-.05-.23-.11-.35-.15-.14-.06-.29-.12-.43-.18-5.13-2.12-10.66-3.27-16.27-3.3-5.61.03-11.14,1.18-16.27,3.3-.14.06-.29.12-.43.18-.12.05-.23.11-.35.16-2.95,1.31-5.53,2.84-7.71,4.35-.52.36-1,.78-1.51,1.17.14-.1.25-.23.38-.34-.01,0-.03,0-.03,0-5.61-4.14-14.44-8.82-25.65-8.82s-22.87,4.76-30.95,13.06c-7.88,8.1-12.04,18.68-11.72,29.79.74,26.01,27.45,57.6,64.94,76.81,1.06.54,2.22.82,3.38.82s2.32-.27,3.37-.82c8.06-4.13,15.61-8.83,22.52-13.93,4.2-3.1,8.16-6.34,11.85-9.68,18.47-16.77,30.08-36.18,30.57-53.2.23-8.24-2-16.2-6.39-23.06M341.94,145.48c-3.67,3.18-7.64,6.26-11.85,9.19-4.44,3.08-9.13,6-14.05,8.68-30.66-16.7-52.96-42.48-53.53-62.3-.2-7.08,2.48-13.85,7.55-19.06,5.3-5.45,12.72-8.58,20.34-8.58,6.43,0,11.8,2.54,15.51,5.01,2.39,1.58,4.09,3.14,4.92,3.96,2.88,2.86,7.53,2.86,10.42,0,.67-.66,1.89-1.79,3.58-3.03,2.72-2.1,5.81-3.69,9.09-4.7,2.1-.67,4.39-1.11,6.85-1.21h.02c.3-.01.6-.04.91-.04.08,0,.17,0,.25,0s.17,0,.25,0c.31,0,.6.03.9.04h.02c2.46.1,4.75.54,6.85,1.21,3.28,1,6.36,2.59,9.08,4.69,1.05.81,2.05,1.69,2.98,2.65,5.07,5.21,7.75,11.98,7.55,19.06-.39,13.62-11.05,30.06-27.63,44.43"/>
  <path class="cls-1" d="M378.49,274.07c-.22-11.5.03-25.22.03-37.33h113.21c0,8.09.09,15.82-.02,23.54-.25,17.61-.02,35.26-1.19,52.81-.44,6.6-7.16,20.33-10.37,26.31-3.72,6.94-11.01,16.98-17.31,19.88,0,0,19.39-.23,16.73-.23,13.41-16.32,26.07-42.83,25.16-61.02,24.13-5.48,34.41-18.06,34.46-41.38.05-23.48.05-23.61-23.66-23.4-5.95.05-10.83-.01-14.36-6.3-1.33-2.37-6.54-3.58-9.99-3.6-37.3-.25-74.61-.25-111.92-.1-10.43.04-13.67,3.73-13.74,14.48-.05,9.28.22,16.84.23,28.21,5.64,2.33,12.77,9.77,12.74,8.14M505.2,246.98h19.43c5.24,19.56-2.36,34.08-19.43,36.54v-36.54Z"/>
  <path class="cls-6" d="M154.88,359.04c.18-1-9.53-98.23-13.93-139.83h97.95l-2.33,40.69c-.08,1.29,1.97,2.25,2.8,1.26l4.1-5.21,4.56-4.07c1.2-.94,1.96-2.33,2.11-3.84.56-5.47,1.79-15.35,2.1-18.35,2.08-20.4,4.43-40.78,6.22-61.21.94-10.79-3.71-15.38-14.58-15.43-18.22-.09-36.44.04-54.66-.06-5.01-.03-10.09.46-10.04,6.6.05,6.07,5.27,6.72,10.18,6.72,15.62,0,31.23-.02,46.85.03,3.03.01,6.06.31,9.41.5-1.42,13.36-2.73,25.62-4.02,37.69h-102.25c-1.32-12.88-2.56-25.06-3.91-38.24,7.8,0,14.69.06,21.58-.02,4.77-.06,9.57-1.72,8.63-7.07-.44-2.48-5.4-5.49-8.61-5.89-7.12-.88-14.43-.45-21.65-.23-9.09.28-13.84,5.39-12.92,14.56,3.82,37.94,7.87,75.85,11.84,113.78,2.32,22.17,4.63,54.34,7.05,77.63h13.54Z"/>
  <path class="cls-1" d="M431.03,165.35c-8.08,0-16.17-.08-24.25.03-5.96.08-10.29,2.71-10.4,9.11-.12,6.88,4.36,9.58,10.72,9.66,6.92.09,13.87-.2,20.78.15,10.81.54,19.73,9.3,19.14,19.46-.05.88-.4,1.74-.92,2.6-2.28,3.75-7.65,4.49-10.43,1.09-.37-.45-.64-.93-.74-1.44-1.57-7.34-6.05-9.09-12.55-8.97-6.35.12-12.73.26-19.04-.23-12.06-.94-20.62-10.69-20.37-22.63.24-11.49,8.92-21.02,20.64-21.46,13.84-.52,27.71-.19,41.57-.24,2.6-.01,5.21.1,7.79-.13,5.24-.46,9.71-3.14,8.33-8.58-.8-3.13-5.12-6.64-8.5-7.54-4.86-1.29-10.47.41-15.44-.66-.67-.15-1.32-.43-1.95-.79-4.23-2.5-4.34-8.88.11-10.98.45-.21.91-.37,1.39-.43,6.22-.87,12.68-.52,19-.07,11.1.8,19.04,9.66,19.09,20.75.05,11.26-8.41,20.6-19.69,21.14-8.06.38-16.16.07-24.24.07v.1Z"/>
  <path class="cls-2" d="M409.44,349.57c.43-19.98-8.72-35.18-21.73-48.65-1.56-1.62-1.8-4.56-2.57-6.91-1.81-5.53-8.42-16.78-20.96-23.52-6.17-3.32-13.07-4.67-14.53-8.25-4.79-11.75-13.28-17.57-24.78-20.75-19.02-5.27-38.05-4.71-57.9.06-6.49,3.03-10.1,6.19-13.9,9.45-3.32,2.85-6.06,6.28-8.31,10.03-.58.97-1.18,1.94-1.81,2.89-1.44,2.22-5.84,2.85-9.02,3.54-2.08.45-4.2.92-6.29,1.45-5.54,1.42-10.82,3.36-14.52,6.94-2.65,2.57-4.5,5.97-5.03,10.66-1.28,11.37-8.38,18.03-13.47,26.7-6.25,10.64-9.92,22.8-14.71,34.3-4.81,11.52,5.82,11.52,5.82,11.52h215.51s9.14.8,8.19-9.46M196.25,349.14c-.67-13.22,3.86-23.89,14.13-34.38,2.31,12.09,4.32,22.65,6.56,34.38h-20.68ZM235.05,349.28c-2.14-.22-5.22-3.32-5.7-5.56-3.27-15.48-6.05-31.06-8.81-46.64-1.6-9.05.77-12.75,9.71-15.22,4.1-1.13,8.37-1.67,13.52-2.66,4.36,23.45,8.6,46.23,13.09,70.35-8.09,0-15.01.45-21.81-.27M318.4,348.93c-15.83.38-31.68.22-48.17.22-3.41-18.31-6.74-36.11-10.04-53.91-1.26-6.8-2.68-13.58-3.58-20.43-1.49-11.36,1.5-16.06,12.19-19.58,18.38-6.05,36.82-6.15,55.23-.09,10.84,3.57,14.33,8.25,12.51,19.32-3.83,23.31-8.18,46.54-12.69,69.73-.37,1.93-3.53,4.69-5.45,4.74M371.22,297.49c-2.64,15.64-5.52,31.26-8.81,46.78-.44,2.08-3.68,4.81-5.86,5.05-6.24.68-12.61.24-20.19.24,4.35-23.62,8.54-46.38,12.93-70.25,4.49.88,7.89,1.39,11.21,2.24,10.36,2.66,12.49,5.52,10.73,15.94M395.6,349.11h-20.26c2.07-11.41,4.04-22.25,6.22-34.24,10.17,9.79,14.76,20.34,14.04,34.24"/>
  <path class="cls-3" d="M136.77,363.85s0-.04,0-.07h-7.75c2.56.04,5.14.07,7.76.07"/>
  <path class="cls-3" d="M316.04,363.82c6.67,0,12.41.34,17.94-.04h-17.94s0,.03,0,.04"/>
  <path class="cls-3" d="M236.55,363.82s0-.02,0-.03h-18.97c5.91.36,12.01.03,18.98.03"/>
  <path class="cls-3" d="M389.13,363.84c2.16,0,4.29-.02,6.41-.06h-6.41v.06Z"/>
  <path class="cls-3" d="M466.43,363.84c5.83,0,9.93,0,14.03,0,2.34,0,4.68-.02,7.01-.06h-21s-.03.04-.04.06"/>
  <path class="cls-3" d="M432.48,364.13c3.39.33,6.44.18,9.23-.35h-13.78c1.52.1,3.04.2,4.55.35"/>
  <path class="cls-3" d="M528.08,371.72c-1.91-3.7-7.7-7.12-12.08-7.51-9.43-.82-18.95-.56-28.46-.43h-.07c-2.34.03-4.68.06-7.02.06-4.1,0-8.2,0-14.03,0,.01-.02.03-.04.04-.06H106.86c-2.36.09-4.72.21-7.07.42-4.65.41-10.87,3.8-12.82,7.64-1.69,3.32.39,10.1,3.01,13.77,8.05,11.24,17.38,21.56,25.75,32.58,3.79,4.99,9.74,7.9,15.99,7.72,10.09-.29,20.19-.06,30.41-.06.2,2.92.38,4.64.44,6.36.58,15.93,5.84,21,21.89,21.07,5.49.02,10.99,0,16.48,0,19.18-.01,23.57-4.17,24.39-23.02.06-1.33.41-2.65.7-4.45,4.87,0,9.38.77,13.41-.27.45-.12.88-.31,1.3-.55,4.12-2.38,4.18-8.31.45-11.25-.44-.35-.89-.65-1.38-.91-2.04-1.1-5.09-.39-7.69-.39-32.1-.01-64.21.04-96.31-.08-3.01-.01-7.22-.03-8.81-1.85-9.01-10.3-17.39-21.15-26.7-32.7h414.39c-7.64,9.5-15,17.61-21.1,26.59-4.51,6.64-9.87,8.2-17.4,8.18-67.1-.24-134.19-.14-201.29-.14-2.6,0-5.62-.78-7.71.27-.03.02-.06.03-.09.05-4.95,2.55-5.03,9.74-.29,12.66.15.09.3.18.45.27,1.53.87,3.96.17,5.99.17,35.57,0,71.15,0,106.72,0h9.08c2.68,25.65,4.67,27.43,29.5,27.43h4.34c25.79,0,27.25-1.27,30.34-27.43,10.86,0,21.28.55,31.6-.26,4.4-.34,9.81-2.42,12.64-5.6,9.98-11.22,19.41-22.98,28.21-35.14,2.46-3.39,4.04-9.92,2.38-13.13M176.18,426.41h35.41q1.02,13.39-11.69,13.39c-4.02,0-8.03,0-12.05,0q-12.76,0-11.67-13.39M428.14,439.81c-4.3,0-8.61,0-12.91,0q-12.71,0-11.82-13.63h34.72c2.87,12.66,2.16,13.62-9.99,13.63"/>
  <path class="cls-3" d="M106.86,363.78h22.15c-7.57-.11-14.91-.28-22.15,0"/>
</svg>