<?xml version="1.0" encoding="UTF-8"?>
<svg id="Camada_2" data-name="Camada 2" xmlns="http://www.w3.org/2000/svg" viewBox="0 0 161.5 36">
  <defs>
    <style>
      .cls-1 {
        fill: #54c0e8;
      }

      .cls-2 {
        fill: #ff4713;
      }

      .cls-3 {
        fill: #007934;
      }

      .cls-4 {
        fill: #3dae2b;
      }
    </style>
  </defs>
  <g id="Layer_1" data-name="Layer 1">
    <g>
      <g>
        <path class="cls-3" d="M159.93,12.82c.88,0,1.57-.69,1.57-1.57s-.69-1.57-1.57-1.57-1.59.69-1.59,1.57.7,1.57,1.59,1.57Z"/>
        <g>
          <path class="cls-3" d="M132.13,15.98l-1.57-.61c-.09-.05-.22-.11-.37-.18-.26-.12-.55-.26-.68-.36-.34-.34-.56-.61-.56-1.16,0-.82.78-1.41,1.85-1.41s1.92.4,2.46,1.23l.06.09,2.01-1.38-.06-.09c-1.01-1.57-2.53-2.37-4.52-2.37-1.29,0-2.35.36-3.24,1.1-.87.74-1.31,1.71-1.31,2.88,0,1.26.41,2.21,1.26,2.9.88.7,1.67,1.07,2.93,1.54,1.09.4,1.49.57,2.08.98.55.36.77.76.77,1.37,0,.41-.17,1.76-2.32,1.76-1.63,0-2.78-.69-3.5-2.12l-.05-.11-2.12,1.33.04.09c.94,2.12,2.99,3.33,5.61,3.33,3.21,0,5.13-1.62,5.13-4.34,0-1.09-.31-1.98-.93-2.64-.61-.65-1.61-1.26-2.96-1.82Z"/>
          <path class="cls-3" d="M142.71,13.67c-1.63,0-2.93.5-3.99,1.53-1.03,1.03-1.55,2.39-1.55,4.04v.08c0,1.64.52,2.97,1.56,3.96,1.03.99,2.39,1.49,4.05,1.49,1.78,0,3.24-.62,4.44-1.88l.07-.08-1.64-1.59-.08.08c-.78.78-1.67,1.16-2.72,1.16-1.71,0-2.88-.98-3.01-2.5h8.05v-.1c.03-.28.05-.56.05-.87,0-1.52-.48-2.77-1.47-3.8-.96-1.02-2.22-1.54-3.76-1.54ZM140.78,16.62c.54-.42,1.19-.64,1.93-.64.69,0,1.26.21,1.76.65.46.39.71.86.74,1.39h-5.3c.08-.55.38-1.03.87-1.41Z"/>
          <path class="cls-3" d="M154.43,18.22l-.14-.05c-.39-.14-.88-.31-1.15-.38-.41-.16-.71-.29-.82-.36-.27-.17-.42-.33-.42-.63,0-.5.45-.82,1.15-.82.85,0,1.5.28,1.93.82l.08.1,1.53-1.62-.06-.07c-.81-1.04-1.96-1.56-3.44-1.56-1.03,0-1.93.29-2.68.87-.73.58-1.09,1.35-1.09,2.35,0,1.44.81,2.37,2.62,3.02.26.11.66.23.98.34.12.04.22.07.31.1.31.1.73.24.95.38.34.18.54.45.54.73,0,.65-.64,1.02-1.74,1.02s-2.15-.48-2.65-1.25l-.07-.1-1.75,1.47.04.08c.7,1.37,2.29,2.16,4.38,2.16,2.69,0,4.37-1.3,4.37-3.4,0-1.5-.88-2.49-2.85-3.19Z"/>
          <rect class="cls-3" x="158.59" y="13.96" width="2.69" height="10.58"/>
        </g>
        <g>
          <path class="cls-2" d="M52.61,23.33c-.46,0-.71-.18-.71-1.11v-8.79h-1.4v1.64c-.29-.43-.7-.81-1.25-1.15-.83-.51-1.74-.76-2.78-.76-1.56,0-2.88.56-3.93,1.65-1.05,1.09-1.58,2.47-1.58,4.09s.53,3,1.58,4.09c1.05,1.1,2.38,1.65,3.93,1.65,1.76,0,3.25-.73,4.09-1.99.07,1.28.67,1.93,1.76,1.93.43,0,.73-.05.96-.17l.1-.05v-1.15l-.22.06c-.13.04-.32.06-.54.06ZM46.46,14.48c1.18,0,2.15.41,2.95,1.25.79.83,1.19,1.9,1.19,3.16s-.4,2.35-1.19,3.18c-.79.83-1.75,1.23-2.95,1.23s-2.15-.41-2.95-1.25c-.79-.85-1.17-1.89-1.17-3.16s.39-2.32,1.17-3.14c.78-.84,1.77-1.27,2.95-1.27Z"/>
          <path class="cls-2" d="M57.51,23.31c-1,0-1.41-.54-1.41-1.85v-12.09h-1.4v12.16c0,2.04.97,3.12,2.8,3.12.26,0,.55-.03.92-.11l.14-.03v-1.33l-.22.06c-.2.05-.46.08-.84.08Z"/>
          <path class="cls-2" d="M60.36,11.66c.24,0,.47-.08.64-.25.24-.21.34-.51.27-.81-.08-.36-.39-.67-.74-.76-.31-.08-.62.02-.84.27-.16.16-.26.4-.26.65s.09.49.26.66c.19.16.43.25.66.25Z"/>
          <path class="cls-2" d="M61.75,23.26c-.47,0-.69-.15-.69-.98v-8.86h-1.4v9.05c0,1.74.99,2.11,1.81,2.11.37,0,.67-.04.92-.14l.11-.04v-1.2l-.19.02c-.19.02-.39.04-.57.04Z"/>
          <path class="cls-2" d="M79.68,23.12c-.08,0-.14.02-.17.02-.43,0-.65-.16-.65-1.03v-4.46c0-2.71-1.43-4.4-3.73-4.4-1.67,0-2.94.77-3.56,2.14-.52-1.3-1.79-2.14-3.28-2.14s-2.45.54-3.09,1.62v-1.45h-1.4v10.94h1.4v-5.87c0-2.37,1.13-3.91,2.88-3.91,1.61,0,2.61,1.26,2.61,3.28v6.5h1.4v-5.98c0-2.31,1.11-3.8,2.84-3.8,1.57,0,2.54,1.26,2.54,3.28v4.33c0,1.85,1.02,2.23,1.88,2.23.24,0,.47-.04.67-.12l.11-.04v-1.19l-.19.02c-.1,0-.19.02-.26.03Z"/>
          <path class="cls-2" d="M86.29,13.15c-1.52,0-2.81.55-3.83,1.63-1.01,1.05-1.52,2.44-1.52,4.14v.06c0,1.67.49,3,1.5,4.07,1.03,1.05,2.3,1.57,3.89,1.57,1.75,0,3.2-.64,4.3-1.91l.11-.12-.94-.91-.12.12c-.96,1-2.05,1.48-3.35,1.48-1.16,0-2.12-.39-2.87-1.15-.72-.74-1.09-1.66-1.15-2.82h9.02l.02-.15c.02-.16.02-.33.02-.55,0-1.55-.48-2.81-1.45-3.88-.95-1.06-2.18-1.59-3.64-1.59ZM86.29,14.48c1.02,0,1.86.35,2.57,1.08.66.68,1.02,1.51,1.08,2.46h-7.57c.08-.97.47-1.79,1.18-2.46.77-.73,1.67-1.09,2.74-1.09Z"/>
          <path class="cls-2" d="M102.98,23.12c-.08,0-.14.02-.17.02-.43,0-.65-.16-.65-1.03v-4.46c0-2.67-1.65-4.4-4.19-4.4-1.6,0-2.77.56-3.47,1.67v-1.5h-1.4v10.94h1.4v-5.87c0-2.37,1.27-3.91,3.24-3.91,1.84,0,3.03,1.29,3.03,3.28v4.33c0,1.85,1.02,2.23,1.88,2.23.22,0,.43-.04.66-.11l.12-.04v-1.2l-.19.02c-.1,0-.19.02-.26.03Z"/>
          <path class="cls-2" d="M106.56,9.37h-1.4v4.06h-1.24v1.33h1.24v6.49c0,2.31.99,3.39,3.12,3.39.38,0,.74-.04,1.09-.13l.13-.03v-1.29l-.21.04c-.33.07-.7.1-1.06.1-1.21,0-1.68-.58-1.68-2.08v-6.49h2.95v-1.33h-2.95v-4.06Z"/>
          <path class="cls-2" d="M122.47,23.27c-.13.04-.32.06-.54.06-.46,0-.71-.18-.71-1.11v-8.79h-1.4v1.64c-.29-.43-.7-.81-1.25-1.15-.83-.51-1.74-.76-2.78-.76-1.56,0-2.88.56-3.93,1.65-1.05,1.09-1.58,2.47-1.58,4.09s.53,3,1.58,4.09c1.05,1.1,2.38,1.65,3.93,1.65,1.76,0,3.25-.73,4.09-1.99.07,1.28.67,1.93,1.76,1.93.43,0,.73-.05.96-.17l.1-.05v-1.15l-.22.06ZM115.78,14.48c1.18,0,2.15.41,2.95,1.25.79.83,1.19,1.9,1.19,3.16s-.4,2.35-1.19,3.18c-.79.83-1.75,1.23-2.95,1.23s-2.15-.41-2.95-1.25c-.79-.85-1.17-1.89-1.17-3.16s.39-2.32,1.17-3.14c.78-.84,1.77-1.27,2.95-1.27Z"/>
        </g>
      </g>
      <g>
        <path class="cls-3" d="M16.77,15.45c-.65.57-1.36,1.11-2.11,1.64.66.6,1.36,1.17,2.11,1.72.75-.55,1.45-1.13,2.11-1.72-.75-.52-1.45-1.07-2.11-1.64Z"/>
        <path class="cls-1" d="M25.63,20.33v13.04H7.91v-13.04c-.94-.64-1.82-1.31-2.63-2.02v16.37c0,.73.59,1.31,1.32,1.31h20.35c.73,0,1.32-.59,1.32-1.31v-16.37c-.82.71-1.7,1.38-2.63,2.02Z"/>
        <g>
          <path class="cls-4" d="M11.85,7.55c-.04-1.26.44-2.47,1.34-3.39.17-.17.34-.33.53-.47-.3.22-.52.42-.64.54-.51.51-1.34.51-1.85,0-.15-.15-.45-.42-.88-.7-.78,1.22-1.18,2.64-1.14,4.1.09,3.03,2.15,6.48,5.44,9.47.75-.52,1.45-1.07,2.11-1.64-2.95-2.56-4.85-5.48-4.92-7.91Z"/>
          <path class="cls-1" d="M20.45,4.23c-.12-.12-.34-.32-.64-.54.19.14.36.3.53.47.9.93,1.38,2.13,1.34,3.39-.07,2.42-1.97,5.35-4.92,7.91.65.57,1.36,1.11,2.11,1.64,3.29-2.98,5.35-6.44,5.44-9.47.04-1.47-.36-2.88-1.14-4.1-.42.28-.73.56-.88.7-.51.51-1.34.51-1.85,0Z"/>
          <path class="cls-3" d="M10.36,3.52c.42.28.73.56.88.7.51.51,1.34.51,1.85,0,.12-.12.34-.32.64-.54.48-.37,1.03-.66,1.62-.84.37-.12.78-.2,1.22-.22,0,0,0,0,0,0,.05,0,.11,0,.16,0,.02,0,.03,0,.05,0,.02,0,.03,0,.05,0,.05,0,.11,0,.16,0,0,0,0,0,0,0,.44.02.85.1,1.22.22.58.18,1.13.46,1.62.83.3.22.52.42.64.54.51.51,1.34.51,1.85,0,.15-.15.45-.42.88-.7-.27-.42-.59-.83-.95-1.2-.32-.33-.68-.63-1.06-.9-.39-.27-.85-.54-1.37-.77-.02,0-.04-.02-.06-.03-.02-.01-.05-.02-.08-.03C18.75.21,17.77,0,16.77,0c-1,0-1.98.21-2.89.59-.03.01-.05.02-.08.03-.02,0-.04.02-.06.03-.53.23-.98.51-1.37.77-.38.27-.73.57-1.06.9-.36.37-.68.77-.95,1.2Z"/>
          <path class="cls-1" d="M12.16,18.63C6.7,15.66,2.74,11.07,2.63,7.55c-.04-1.26.44-2.47,1.34-3.39.94-.97,2.26-1.53,3.62-1.53,1.14,0,2.1.45,2.76.89.27-.42.59-.83.95-1.2.27-.27.55-.52.86-.75,0,0,0,0,0,0-1-.74-2.57-1.57-4.56-1.57S3.53.85,2.09,2.32C.69,3.76-.05,5.65,0,7.62c.13,4.63,4.88,10.25,11.56,13.67.19.1.39.15.6.15s.41-.05.6-.15c1.43-.73,2.78-1.57,4.01-2.48-.75-.55-1.45-1.13-2.11-1.72-.79.55-1.62,1.07-2.5,1.54Z"/>
          <path class="cls-4" d="M31.45,2.32c-1.44-1.48-3.44-2.32-5.51-2.32s-3.56.83-4.56,1.57c0,0,0,0,0,0,.3.23.59.48.86.75.36.37.68.77.95,1.2.66-.44,1.62-.89,2.76-.89,1.36,0,2.68.56,3.62,1.53.9.93,1.38,2.13,1.34,3.39-.1,3.53-4.07,8.11-9.52,11.09-.88-.48-1.71-1-2.5-1.54-.66.6-1.36,1.17-2.11,1.72,1.23.91,2.57,1.74,4.01,2.48.19.1.39.15.6.15s.41-.05.6-.15c6.67-3.42,11.42-9.04,11.56-13.67.06-1.98-.68-3.86-2.09-5.3Z"/>
        </g>
      </g>
    </g>
  </g>
</svg>