<?xml version="1.0" encoding="UTF-8"?>
<svg id="Camada_1" data-name="Camada 1" xmlns="http://www.w3.org/2000/svg" viewBox="0 0 600 600">
  <defs>
    <style>
      .cls-1 {
        fill: #ff4713;
      }

      .cls-2 {
        fill: #5ec3e9;
      }

      .cls-3 {
        fill: #007934;
      }

      .cls-4 {
        fill: #3dae2b;
      }
    </style>
  </defs>
  <path class="cls-4" d="M300.04,600c-79.59,0-154.42-31-210.7-87.27C33.06,456.45,2.07,381.62,2.07,302.03c0-79.59,31-154.41,87.28-210.69C172.38,8.31,296.98-18.19,406.75,23.84c7.51,2.88,11.27,11.3,8.39,18.82-2.87,7.51-11.28,11.26-18.82,8.39-99.03-37.92-211.45-14.02-286.38,60.89-104.82,104.82-104.82,275.37,0,380.18,104.82,104.82,275.37,104.82,380.19,0,74.92-74.92,98.81-187.34,60.89-286.38-2.88-7.52.88-15.94,8.39-18.82,7.53-2.87,15.94.88,18.82,8.39,42.03,109.78,15.54,234.37-67.5,317.41-56.28,56.28-131.1,87.27-210.7,87.27"/>
  <path class="cls-1" d="M301.14,521.8c-120.76,0-218.99-98.24-218.99-218.99s98.24-218.99,218.99-218.99c24.27,0,48.13,3.95,70.89,11.73,17.75,6.07,34.68,14.43,50.32,24.84,6.7,4.46,8.51,13.5,4.05,20.2-4.46,6.7-13.51,8.51-20.2,4.06-13.56-9.03-28.23-16.27-43.6-21.53-19.72-6.75-40.41-10.17-61.47-10.17-104.69,0-189.86,85.17-189.86,189.85s85.17,189.86,189.86,189.86c33.97,0,55.63-15.58,62.02-31.02,2.61-6.31,3.99-15.56-4.29-23.85-16.1-16.09-24.59-31.28-25.96-46.44-1.34-14.71,4.11-28.29,16.18-40.36,11.7-11.71,25.22-17.59,39.61-16.82,14.99.74,30.09,8.61,44.86,23.38,7.85,7.85,19.77,10.08,30.36,5.69,17.2-7.12,27.08-29.16,27.08-60.45s-8.29-64.35-23.97-92.43c-7.03-12.58-15.53-24.4-25.25-35.13-5.41-5.96-4.96-15.17,1-20.58,5.96-5.41,15.17-4.95,20.58,1,11.22,12.36,21.01,25.99,29.11,40.5,18.1,32.42,27.67,69.29,27.67,106.63,0,62.01-31.51,81.76-45.06,87.37-21.51,8.9-45.9,4.2-62.11-12.01-9.37-9.37-18.26-14.52-25.7-14.88-5.94-.29-11.69,2.43-17.57,8.32-7.66,7.66-8.1,13.44-7.76,17.12.71,7.86,6.78,17.71,17.55,28.47,14.9,14.89,18.86,35.68,10.61,55.6-12.33,29.77-47.24,49.01-88.94,49.01"/>
  <path class="cls-4" d="M301.14,521.8c-120.76,0-218.99-98.24-218.99-218.99,0-8.05,6.52-14.57,14.57-14.57s14.57,6.52,14.57,14.57c0,104.69,85.17,189.86,189.86,189.86,33.97,0,55.63-15.58,62.02-31.02,2.61-6.31,3.99-15.56-4.29-23.85-16.1-16.09-24.59-31.28-25.96-46.44-1.34-14.71,4.11-28.29,16.18-40.36,5.69-5.69,14.91-5.69,20.6,0,5.69,5.69,5.69,14.91,0,20.6-7.66,7.66-8.1,13.44-7.76,17.12.71,7.86,6.78,17.71,17.55,28.47,14.9,14.89,18.86,35.68,10.61,55.6-12.33,29.77-47.24,49.01-88.94,49.01"/>
  <path class="cls-1" d="M249.71,398.03c0-17.38-14.09-31.47-31.47-31.47s-31.47,14.09-31.47,31.47,14.09,31.47,31.47,31.47,31.47-14.09,31.47-31.47"/>
  <path class="cls-3" d="M203.93,314.7c0-17.38-14.09-31.47-31.47-31.47s-31.47,14.09-31.47,31.47,14.09,31.47,31.47,31.47,31.47-14.09,31.47-31.47"/>
  <path class="cls-4" d="M229.89,219.49c0-17.38-14.09-31.47-31.47-31.47s-31.47,14.09-31.47,31.47,14.09,31.47,31.47,31.47,31.47-14.09,31.47-31.47"/>
  <path class="cls-3" d="M391.61,238.6c-3.72,0-7.43-1.41-10.28-4.24-5.7-5.68-5.72-14.9-.05-20.6l169.27-170.04c3.45-3.46,3.45-9.04.02-12.47-3.19-3.18-8.74-3.18-11.91,0l-169.97,169.88c-5.69,5.68-14.91,5.69-20.6,0-5.69-5.69-5.69-14.91,0-20.61L518.06,10.64c14.18-14.18,38.94-14.18,53.12,0,14.79,14.79,14.79,38.85,0,53.65l-169.25,170.02c-2.85,2.86-6.59,4.29-10.32,4.29"/>
  <path class="cls-2" d="M221.46,312.92c-3.23,0-6.48-1.07-9.19-3.27-6.24-5.08-7.18-14.26-2.1-20.5l85.85-105.35c10.2-10.2,21.89-15.33,34.35-15.07,24.34.38,43.45,20.74,52.64,30.53.97,1.03,1.79,1.91,2.47,2.58,5.69,5.69,5.69,14.91,0,20.6-5.69,5.68-14.91,5.69-20.6,0-.85-.85-1.89-1.95-3.1-3.24-5.94-6.33-19.85-21.15-31.86-21.34-1.6-.09-6.4-.1-12.8,6.06l-84.34,103.62c-2.88,3.54-7.08,5.37-11.31,5.37"/>
  <path class="cls-1" d="M287.66,379.09c-4.24,0-8.43-1.83-11.3-5.37-5.09-6.24-4.14-15.41,2.1-20.49l103.62-84.35c6.17-6.4,6.09-11.2,6.07-12.8-.19-11.99-15.01-25.91-21.34-31.85-1.29-1.22-2.4-2.26-3.25-3.11-5.69-5.69-5.69-14.91,0-20.6,5.69-5.69,14.91-5.69,20.6,0,.68.68,1.56,1.5,2.6,2.47,9.78,9.19,30.14,28.3,30.52,52.64.2,12.59-4.87,24.15-15.07,34.34l-1.1,1-104.25,84.85c-2.7,2.2-5.96,3.27-9.19,3.27"/>
  <path class="cls-1" d="M255.93,344.63c-3.73,0-7.46-1.42-10.3-4.27-5.69-5.69-5.69-14.91,0-20.6l117.78-117.78c5.69-5.69,14.91-5.69,20.6,0,5.69,5.69,5.69,14.91,0,20.6l-117.78,117.78c-2.84,2.85-6.57,4.27-10.3,4.27"/>
</svg>