<?xml version="1.0" encoding="UTF-8"?>
<svg id="Camada_1" data-name="Camada 1" xmlns="http://www.w3.org/2000/svg" viewBox="0 0 600 600">
  <defs>
    <style>
      .cls-1 {
        fill: #54c0e8;
      }

      .cls-2 {
        fill: #007236;
      }

      .cls-3 {
        fill: #ff4713;
      }

      .cls-4 {
        fill: #007934;
      }

      .cls-5 {
        fill: #3dae2b;
      }
    </style>
  </defs>
  <path class="cls-5" d="M300,600C134.58,600,0,465.42,0,300c0-35.05,6-69.39,17.82-102.06,2.75-7.63,11.15-11.56,18.78-8.8,7.61,2.76,11.55,11.17,8.79,18.78-10.66,29.46-16.06,60.45-16.06,92.08,0,149.25,121.42,270.66,270.66,270.66s270.66-121.42,270.66-270.66S449.24,29.34,300,29.34c-49.05,0-97.07,13.24-138.89,38.3-6.93,4.15-15.96,1.91-20.12-5.04-4.16-6.95-1.9-15.96,5.05-20.12C192.41,14.69,245.64,0,300,0,465.42,0,600,134.58,600,300s-134.58,300-300,300"/>
  <path class="cls-3" d="M412.88,167.85c-4.62,0-9.17-2.18-12.02-6.26-10.23-14.6-31.76-26.03-49.04-26.03s-36.84,7.26-49.69,17.63c-6.32,5.11-15.53,4.11-20.64-2.19-5.09-6.3-4.11-15.54,2.19-20.63,18.15-14.67,44.9-24.15,68.14-24.15,26.7,0,57.42,16.21,73.06,38.54,4.65,6.63,3.03,15.78-3.6,20.43-2.56,1.79-5.49,2.65-8.4,2.65"/>
  <path class="cls-4" d="M451.31,323.51c-2.29,0-4.61-.54-6.78-1.67-7.18-3.75-9.96-12.61-6.22-19.79,1.01-1.94,2-3.91,2.98-5.93,31-64.6,12.62-117.13,3.26-136.76-18.64,5.09-62.23,21.27-93.25,66.46-4.57,6.69-13.69,8.38-20.39,3.8-6.69-4.58-8.38-13.71-3.79-20.39,47.79-69.66,119.31-80.54,122.34-80.98,2.83-.42,5.77.03,8.37,1.28l.98.47c2.45,1.17,4.55,3,6.02,5.29,2.02,3.12,48.91,77.67,2.9,173.55-1.13,2.32-2.25,4.57-3.4,6.77-2.62,5.02-7.73,7.89-13.02,7.89"/>
  <path class="cls-1" d="M451.31,323.51c-2.29,0-4.61-.54-6.78-1.67-7.18-3.75-9.96-12.61-6.22-19.79,1.01-1.94,2-3.91,2.98-5.93,38.68-80.58.5-142.38-1.15-144.97-4.32-6.82-2.34-15.88,4.47-20.24,6.8-4.35,15.83-2.42,20.21,4.38,2.02,3.12,48.91,77.67,2.9,173.55-1.13,2.32-2.25,4.57-3.4,6.77-2.62,5.01-7.73,7.89-13.02,7.89"/>
  <path class="cls-1" d="M391.8,213.15c2.55,7.25,10.49,11.07,17.74,8.51,7.25-2.55,11.06-10.49,8.51-17.74-2.55-7.25-10.49-11.06-17.74-8.51-7.25,2.55-11.06,10.49-8.51,17.74"/>
  <path class="cls-4" d="M435,263.75c-6.53,3.61-13.38,4.54-20.36,4.26-6.96-.27-13.78-2.24-20.07-5.13-6.02-3.01-11.68-6.79-16.46-11.58-4.79-4.82-8.81-10.19-11.06-17.22-.65-2.02.47-4.17,2.48-4.82,1.06-.34,2.16-.19,3.05.32l.57.32,14.92,8.52c4.92,2.64,9.69,5.35,14.67,7.7,4.71,2.43,9.6,4.37,14.67,6.26,5.05,1.77,10.6,3.34,16.14,4.85l.68.19c1.84.5,2.92,2.39,2.42,4.22-.25.93-.87,1.67-1.65,2.11"/>
  <path class="cls-4" d="M345.26,327.11c-.48,0-.95-.02-1.44-.07-8.06-.79-13.96-7.96-13.18-16.02,3.75-38.59-1.75-70.34-16.36-94.35-25.49-41.9-36.98-70.33-42.08-88.39-20.7,13.96-54.26,40.08-71.71,72.4-3.86,7.13-29.67-6.81-25.82-13.93,30.42-56.36,98.42-93.77,101.3-95.33,4.73-2.58,10.52-2.35,15.05.62,4.52,2.97,7.04,8.19,6.56,13.57.03,0,.11,27.36,41.75,95.81,17.98,29.55,24.89,67.38,20.5,112.43-.73,7.58-7.12,13.25-14.58,13.25"/>
  <path class="cls-2" d="M264.4,316.9c-10.19-21.4-17.56-44.5-20.77-68.52-3.34-23.85-1.73-49.45,8.45-71.68,1.19-2.61,4.27-3.75,6.88-2.56,2.17,1,3.33,3.29,2.97,5.54v.1c-1.79,11.02-2.65,21.96-2.26,32.9.25,10.92,1.53,21.81,3.43,32.64,4.03,21.67,11.24,42.82,19.27,63.84,1.95,5.04-.56,10.71-5.59,12.66-4.78,1.85-10.17-.38-12.37-4.92"/>
  <path class="cls-5" d="M345.26,327.11c-.48,0-.95-.02-1.44-.07-8.06-.79-13.96-7.96-13.18-16.02,3.75-38.59-1.75-70.34-16.36-94.35-46.53-76.51-46.41-108.12-45.92-113.67.73-8.07,7.8-14.03,15.92-13.3,8.07.72,14.03,7.85,13.3,15.92.03,0,.11,27.36,41.75,95.81,17.98,29.55,24.89,67.38,20.5,112.43-.73,7.58-7.12,13.25-14.58,13.25"/>
  <path class="cls-4" d="M264.4,316.9c-10.19-21.4-17.56-44.5-20.77-68.52-3.34-23.85-1.73-49.45,8.45-71.68,1.19-2.61,4.27-3.75,6.88-2.56,2.17,1,3.33,3.29,2.97,5.54v.1c-1.79,11.02-2.65,21.96-2.26,32.9.25,10.92,1.53,21.81,3.43,32.64,4.03,21.67,11.24,42.82,19.27,63.84,1.95,5.04-.56,10.71-5.59,12.66-4.78,1.85-10.17-.38-12.37-4.92"/>
  <path class="cls-5" d="M122.11,275.86c-3.05,0-6.04-1.42-7.96-4.08-3.15-4.39-2.14-10.5,2.24-13.65l28.49-20.43c4.4-3.15,10.51-2.13,13.65,2.24,3.15,4.39,2.14,10.5-2.24,13.65l-28.49,20.43c-1.73,1.24-3.72,1.83-5.69,1.83"/>
  <path class="cls-4" d="M189.37,288.33c-3.05,0-6.04-1.42-7.96-4.08-3.15-4.39-2.14-10.5,2.24-13.65l28.49-20.44c4.38-3.15,10.5-2.15,13.65,2.24,3.15,4.39,2.14,10.5-2.24,13.65l-28.49,20.44c-1.73,1.24-3.71,1.83-5.69,1.83"/>
  <path class="cls-3" d="M143.65,310.09l-49.59-50.54c-9.36-9.53-13.86-22.37-12.66-36.15,1.37-15.86,10.07-30.63,23.86-40.53l23.55-16.88c12.25-8.81,27.17-11.92,41.01-8.55,12.08,2.95,21.74,10.49,27.17,21.22l65.51,129.37c3.67,7.23-31.75,2.23-31.75,2.23l-59.93-118.34c-1.93-3.81-5.4-5.35-7.96-5.98-5.39-1.29-11.72.14-16.94,3.89l-23.55,16.88c-6.72,4.83-11.11,12.01-11.73,19.22-.32,3.62.19,8.82,4.37,13.08l64.68,65.91c5.67,5.78-36.02,5.18-36.02,5.18"/>
  <path class="cls-4" d="M125.28,195.08c-3.6,0-7.05-2-8.75-5.42-.43-.86-5.77-11.71-9.39-26.48-4.9-14.85-10.75-34.25-14.8-52.92-4-18.47-6.13-41.91,6.46-48.63,2.22-1.18,10.1-4.36,18.65,4.49,7.21,7.48,16.15,32.44,8.28,55.55-3.87,11.37-2.51,24.64.12,35.73,4.72,14.29,8.49,24.21,8.57,24.41,1.85,4.87-.43,10.34-5.21,12.44-1.28.56-2.62.83-3.93.83"/>
  <path class="cls-4" d="M123.05,196.65c-2.22,0-4.43-.74-6.26-2.26-.14-.12-7.63-6.33-18.63-14.61-8.75-5.4-19.45-10.29-30.79-9.87-21.47.73-42.27-13.38-47.34-23.8-5.19-10.67.36-16.99,2.19-18.67,10.83-9.98,33.15.77,45.48,8.04,15.17,8.94,30.38,19.75,41.89,28.41,11.95,7.53,19.83,15.51,20.45,16.15,3.64,3.72,3.71,9.64.18,13.46-1.92,2.08-4.54,3.14-7.18,3.14"/>
  <path class="cls-5" d="M125.32,195.07c-2.72,0-5.42-1.13-7.33-3.3-1.85-2.09-45.51-51.54-61.42-73.72-7.95-11.07-13.53-20.26-16.6-27.32-4.66-10.7-3.91-18.36,2.23-22.76,2.76-1.98,6.28-2.73,9.93-2.05,11.63,2.11,24.78,18.62,33.77,32.09,20.27,30.4,46.93,80.57,48.05,82.69,2.32,4.38,1.01,9.8-3.08,12.63-1.69,1.17-3.63,1.74-5.56,1.74"/>
  <path class="cls-2" d="M394.11,496.98h-188.23c-8.1,0-14.67-6.57-14.67-14.67v-37.04c-45.38-29.97-76.49-77.16-85.88-130.68-.74-4.27.43-8.65,3.22-11.97,2.79-3.32,6.9-5.23,11.23-5.23h360.44c4.33,0,8.44,1.91,11.23,5.23,2.79,3.32,3.96,7.7,3.22,11.97-9.39,53.53-40.51,100.71-85.89,130.68v37.04c0,8.1-6.57,14.67-14.67,14.67M220.55,467.64h158.9v-30.46c0-5.15,2.69-9.92,7.1-12.57,36.85-22.16,63.61-57.22,75.26-97.89H138.19c11.65,40.66,38.41,75.72,75.25,97.89,4.41,2.65,7.1,7.42,7.1,12.57v30.46Z"/>
  <path class="cls-4" d="M394.11,496.98h-188.23c-8.1,0-14.67-6.57-14.67-14.67v-37.04c-45.38-29.97-76.49-77.16-85.88-130.68-.74-4.27.43-8.65,3.22-11.97,2.79-3.32,6.9-5.23,11.23-5.23h360.44c4.33,0,8.44,1.91,11.23,5.23,2.79,3.32,3.96,7.7,3.22,11.97-9.39,53.53-40.51,100.71-85.89,130.68v37.04c0,8.1-6.57,14.67-14.67,14.67M220.55,467.64h158.9v-30.46c0-5.15,2.69-9.92,7.1-12.57,36.85-22.16,63.61-57.22,75.26-97.89H138.19c11.65,40.66,38.41,75.72,75.25,97.89,4.41,2.65,7.1,7.42,7.1,12.57v30.46Z"/>
  <path class="cls-5" d="M394.11,496.98h-188.23c-8.1,0-14.67-6.57-14.67-14.67s6.57-14.67,14.67-14.67h173.56v-30.46c0-5.15,2.69-9.92,7.1-12.57,36.85-22.16,63.61-57.22,75.26-97.88h-81.77c-8.1,0-14.67-6.57-14.67-14.67s6.57-14.67,14.67-14.67h100.18c4.33,0,8.44,1.92,11.23,5.23,2.79,3.32,3.96,7.69,3.22,11.96-9.39,53.53-40.51,100.71-85.89,130.68v37.04c0,8.1-6.57,14.67-14.67,14.67"/>
</svg>