<?xml version="1.0" encoding="UTF-8"?>
<svg id="Camada_1" data-name="Camada 1" xmlns="http://www.w3.org/2000/svg" xmlns:xlink="http://www.w3.org/1999/xlink" viewBox="0 0 600 600">
  <defs>
    <style>
      .cls-1 {
        fill: #54c0e8;
      }

      .cls-2 {
        fill: none;
      }

      .cls-3 {
        fill: #ff4713;
      }

      .cls-4 {
        clip-path: url(#clippath-1);
      }

      .cls-5 {
        fill: #007934;
      }

      .cls-6 {
        fill: #3dae2b;
      }

      .cls-7 {
        clip-path: url(#clippath);
      }

      .cls-8 {
        opacity: .99;
      }
    </style>
    <clipPath id="clippath">
      <rect class="cls-2" y="7.09" width="584.98" height="585.82"/>
    </clipPath>
    <clipPath id="clippath-1">
      <rect class="cls-2" y="7.09" width="584.98" height="585.82"/>
    </clipPath>
  </defs>
  <path class="cls-1" d="M200.6,288c7.57.05,10.64-2.73,10.55-10.42-.28-21.68-.09-43.36-.1-65.04,0-11.81-.74-12.55-12.42-12.56-15.84-.02-31.67,0-47.51,0-.03-.11-.33.08-.36-.03-4.39,4.76-7.03,10.18-10.58,15.39,1.04-.92,2.45-1.64,3.58-1.66,17.65-.19,35.29-.12,53.33-.12v60.27h-94.37c-2.3,4.45-5.12,8.95-6.03,14.08h9.3c31.54,0,63.08-.13,94.61.1"/>
  <path class="cls-6" d="M501.84,235.89c0-30.81-.07-62.52-.11-93.33-.02-9.24-4.66-16.87-11.9-20.78l-7.01,11.98c3.83,1.79,5.37,5.51,5.39,11.99.08,19.99.02,39.98.03,59.96v30.19h13.61Z"/>
  <path class="cls-6" d="M501.79,270.34c0-2.81,0-4.48,0-7.29l-13.55.11v6.88l13.56.31Z"/>
  <path class="cls-6" d="M488.23,296.44v4.36h-243.34c0-52.93-.08-105.26.08-157.6.02-8.19,5.47-10.84,13.06-10.83,10.74,0,22.06,0,32.79,0-1.65-4.48-4.62-8.87-6.25-13.31-10.15.01-19.25-.17-29.4-.15-13.93.02-23.64,10.1-23.83,24.19-.16,11.79-.04,23.6-.04,36.6-25.79,0-50.52.25-75.25-.16-7.08-.12-11.23,2.26-14.98,8.21-17.98,28.56-36.52,56.78-54.51,85.34-2.38,3.77-3.79,8.8-3.84,13.27-.32,32.67-.19,65.34-.16,98.01,0,10.58,1.12,11.68,11.58,11.72,7.29.03,14.57,0,21.61,0,12.58,30.12,26.25,41.16,49.77,40.55,21.56-.56,36.26-13.33,45.7-40.03h162.01c6.47,24.18,21.29,39.83,47.43,39.78,26.08-.05,41.04-15.53,47.46-40.29,8.19,0,16.06-.18,23.92.06,6.69.2,9.8-2.46,9.79-9.4-.03-28.97-.04-61.12-.04-90.09.38,0-13.56-.22-13.56-.22M164.03,423.08c-18.45.14-33.9-15.04-34.08-33.48-.18-18.43,15.03-33.91,33.47-34.07,18.47-.15,33.91,15.01,34.07,33.47.17,18.45-15.04,33.95-33.46,34.08M231.11,382.53c-5.77,0-10.84.43-15.77-.21-2.07-.27-5.15-2.53-5.55-4.36-4.41-20.22-24.54-36.28-46.4-36.02-21.59.25-37.9,13.03-45.64,35.81-.64,1.89-2.89,4.36-4.61,4.55-5.46.59-11.02.22-16.36.22,0-14.16-.1-54.18-.34-54.18,0-4.65.08-35.79.08-40.43h.18c.91-5.14,3.73-9.63,6.02-14.09h-.53c12.23-19.03,23.87-37.23,35.63-55.29-.41.52-.83,1.02-1.28,1.52.44-.5.87-1,1.28-1.52.46-.7.91-1.4,1.37-2.09.25-.38.59-.76.99-1.11,3.56-5.2,6.47-10.93,10.86-15.68,0,0,5.54-6.19,8.67-6.24,21.96-.3,43.92-.18,65.89-.12,1.84,0,3.68.51,5.52.77v188.46ZM420.41,423.08c-18.44-.15-33.64-15.58-33.54-34.03.11-18.43,15.55-33.65,34.01-33.52,18.46.13,33.65,15.54,33.53,34.01-.12,18.43-15.6,33.69-34.01,33.54M487.54,382.27h-19.43c-6.54-24.49-21.4-40.03-47.51-40.04-26.13,0-40.91,15.64-47.4,39.87h-127.94v-66.56h242.27v66.73Z"/>
  <path class="cls-3" d="M105.04,342c15.5-.06,24.76-7.54,24.87-20.1.11-12.68-9.16-20.44-24.48-20.49-2.95,0-6,0-8.94,0,.02,4.49-.11,9.08,0,13.66,4.82-.04,9.42-.79,13.2.26,2.57.71,6.03,2.01,6.08,6.29.05,3.78-3.38,5.78-5.9,6.44-3.92,1.03-8.98.37-13.43.31.11,4.59.17,9.15.2,13.65,2.91,0,6.02.01,8.39,0"/>
  <path class="cls-5" d="M194.52,314.88c3.37,0,7.08.86,10.03-.26,2.58-.98,5.96-4.17,5.97-6.41.02-2.23-3.5-6.13-5.83-6.42-6.92-.87-14.09-.87-21.02-.01-2.35.29-5.9,4.13-5.92,6.36-.01,2.24,3.33,5.59,5.89,6.47,3.27,1.13,7.22.27,10.87.28"/>
  <path class="cls-3" d="M163.51,369.02c-11.1.08-20.2,9.36-20.09,20.46.11,11.11,9.37,20.2,20.48,20.1,11.07-.09,20.2-9.39,20.09-20.48-.1-11.1-9.36-20.17-20.48-20.09M163.49,397.08c-4.14,0-7.5-3.36-7.5-7.5s3.36-7.5,7.5-7.5,7.5,3.36,7.5,7.5-3.36,7.5-7.5,7.5"/>
  <path class="cls-3" d="M420.44,369.02c-11.1.08-20.2,9.36-20.09,20.46.12,11.11,9.37,20.2,20.48,20.1,11.07-.09,20.2-9.39,20.09-20.48-.1-11.1-9.36-20.17-20.48-20.09M420.64,397.08c-4.14,0-7.5-3.36-7.5-7.5s3.36-7.5,7.5-7.5,7.5,3.36,7.5,7.5-3.36,7.5-7.5,7.5"/>
  <path class="cls-5" d="M420,342.06c-26.2.19-47.7,22.1-47.43,48.31.27,26.23,22.12,47.68,48.34,47.47,26.13-.21,47.68-22.18,47.44-48.34-.24-26.2-22.09-47.64-48.36-47.44M420.48,422.03c-17.36,0-31.44-14.07-31.44-31.44s14.07-31.44,31.44-31.44,31.44,14.08,31.44,31.44-14.08,31.44-31.44,31.44"/>
  <path class="cls-5" d="M163.03,342.06c-26.2.19-47.7,22.1-47.43,48.31.27,26.23,22.12,47.68,48.34,47.47,26.13-.21,47.68-22.18,47.44-48.34-.24-26.2-22.09-47.64-48.36-47.44M163.51,422.03c-17.36,0-31.44-14.07-31.44-31.44s14.07-31.44,31.44-31.44,31.44,14.08,31.44,31.44-14.08,31.44-31.44,31.44"/>
  <path class="cls-5" d="M388.53,145.16c-4.02,3.49-8.37,6.86-12.98,10.07,4.04,3.67,8.38,7.21,12.98,10.61,4.6-3.39,8.94-6.94,12.98-10.61-4.61-3.21-8.96-6.58-12.98-10.07"/>
  <path class="cls-1" d="M443.07,175.2v80.24h-109.08v-80.24c-5.76-3.91-11.18-8.08-16.21-12.43v100.77c0,4.47,3.63,8.09,8.1,8.09h125.29c4.48,0,8.1-3.62,8.1-8.09v-100.77c-5.03,4.35-10.45,8.52-16.21,12.43"/>
  <path class="cls-6" d="M358.27,96.49c-.22-7.76,2.71-15.17,8.27-20.88,1.02-1.04,2.11-2.01,3.25-2.89-1.85,1.36-3.19,2.6-3.92,3.32-3.16,3.13-8.25,3.13-11.41,0-.91-.9-2.78-2.6-5.39-4.34-4.81,7.52-7.26,16.23-7,25.26.53,18.65,13.25,39.91,33.48,58.27,4.61-3.21,8.96-6.58,12.98-10.07-18.16-15.74-29.84-33.75-30.26-48.67"/>
  <path class="cls-1" d="M411.2,76.04c-.73-.73-2.07-1.96-3.93-3.32,1.15.89,2.24,1.85,3.26,2.89,5.55,5.71,8.49,13.12,8.27,20.88-.43,14.92-12.1,32.93-30.26,48.67,4.02,3.49,8.37,6.86,12.98,10.07,20.24-18.37,32.95-39.63,33.48-58.27.26-9.03-2.19-17.74-7-25.26-2.61,1.74-4.48,3.44-5.39,4.34-3.16,3.13-8.25,3.13-11.41,0"/>
  <path class="cls-5" d="M349.07,71.7c2.62,1.74,4.48,3.44,5.39,4.34,3.16,3.13,8.25,3.13,11.41,0,.73-.72,2.07-1.96,3.92-3.32,2.98-2.3,6.37-4.04,9.96-5.14,2.29-.73,4.81-1.22,7.5-1.33h.02c.33-.01.66-.04.99-.04.09,0,.18,0,.28,0s.19,0,.28,0c.34,0,.66.03.99.04h.02c2.69.11,5.2.59,7.5,1.33,3.59,1.1,6.97,2.84,9.95,5.14,1.85,1.36,3.19,2.6,3.93,3.32,3.16,3.13,8.25,3.13,11.41,0,.91-.9,2.78-2.6,5.39-4.34-1.67-2.61-3.62-5.08-5.84-7.37-2-2.05-4.18-3.9-6.51-5.54-2.38-1.65-5.21-3.33-8.44-4.77-.13-.06-.25-.12-.38-.17-.15-.07-.31-.13-.47-.19-5.62-2.33-11.67-3.58-17.82-3.62-6.15.04-12.2,1.29-17.82,3.62-.15.06-.31.12-.47.19-.13.05-.25.11-.38.17-3.23,1.44-6.06,3.11-8.44,4.77-2.32,1.64-4.51,3.49-6.51,5.55-2.22,2.29-4.17,4.76-5.84,7.37"/>
  <path class="cls-1" d="M360.17,164.73c-33.58-18.29-58.01-46.54-58.63-68.24-.22-7.76,2.71-15.18,8.27-20.88,5.81-5.97,13.93-9.4,22.27-9.4,7.04,0,12.93,2.79,17,5.48,1.67-2.61,3.62-5.08,5.84-7.37,1.64-1.69,3.42-3.23,5.28-4.63-.01,0-.03,0-.03,0-6.15-4.53-15.82-9.66-28.09-9.66s-25.05,5.21-33.9,14.3c-8.63,8.87-13.19,20.46-12.84,32.63.81,28.49,30.06,63.09,71.13,84.14,1.16.59,2.43.89,3.7.89s2.54-.3,3.7-.89c8.82-4.53,17.1-9.68,24.67-15.26-4.6-3.39-8.94-6.94-12.98-10.61-4.85,3.38-10,6.57-15.39,9.5"/>
  <path class="cls-6" d="M478.89,64.33c-8.84-9.09-21.2-14.3-33.9-14.3s-21.94,5.12-28.09,9.66c0,0-.02,0-.03.01,1.86,1.41,3.64,2.95,5.28,4.63,2.22,2.29,4.17,4.76,5.84,7.37,4.07-2.7,9.95-5.48,17-5.48,8.35,0,16.47,3.42,22.28,9.4,5.55,5.71,8.49,13.12,8.26,20.88-.62,21.7-25.05,49.95-58.63,68.24-5.39-2.93-10.53-6.13-15.39-9.5-4.04,3.67-8.38,7.21-12.98,10.61,7.57,5.58,15.84,10.73,24.67,15.25,1.16.59,2.43.89,3.7.89s2.54-.3,3.7-.89c41.07-21.05,70.32-55.64,71.13-84.14.35-12.17-4.21-23.76-12.84-32.63"/>
  <path class="cls-1" d="M590.04,259.43h-107.02c-5.5,0-9.96-4.46-9.96-9.96s4.46-9.97,9.96-9.97h107.02c5.5,0,9.96,4.46,9.96,9.97s-4.46,9.96-9.96,9.96"/>
  <path class="cls-1" d="M526.56,292.22h-43.55c-5.5,0-9.96-4.46-9.96-9.96s4.46-9.97,9.96-9.97h43.55c5.5,0,9.96,4.46,9.96,9.97s-4.46,9.96-9.96,9.96"/>
  <g class="cls-8">
    <g class="cls-7">
      <g class="cls-4">
        <path class="cls-6" d="M292.91,592.91c-78.24,0-151.79-30.47-207.12-85.79C30.47,451.8,0,378.24,0,300S30.47,148.2,85.79,92.88C141.12,37.56,214.67,7.09,292.91,7.09c2.73,0,5.49.04,8.21.11,10.02.28,17.92,8.63,17.65,18.65-.28,10.02-8.6,17.97-18.65,17.65-2.38-.07-4.81-.1-7.21-.1-141.49,0-256.6,115.11-256.6,256.6s115.11,256.6,256.6,256.6c133.13,0,245.49-103.83,255.81-236.37.78-10,9.5-17.48,19.51-16.69,10,.78,17.47,9.51,16.69,19.51-5.71,73.31-38.62,141.34-92.66,191.56-54.33,50.5-125.13,78.31-199.35,78.31"/>
      </g>
    </g>
  </g>
</svg>